<?xml version="1.0" encoding="UTF-8" standalone="no"?>
<!-- Created with Inkscape (http://www.inkscape.org/) -->

<svg
   xmlns:dc="http://purl.org/dc/elements/1.1/"
   xmlns:cc="http://creativecommons.org/ns#"
   xmlns:rdf="http://www.w3.org/1999/02/22-rdf-syntax-ns#"
   xmlns:svg="http://www.w3.org/2000/svg"
   xmlns="http://www.w3.org/2000/svg"
   xmlns:xlink="http://www.w3.org/1999/xlink"
   xmlns:sodipodi="http://sodipodi.sourceforge.net/DTD/sodipodi-0.dtd"
   xmlns:inkscape="http://www.inkscape.org/namespaces/inkscape"
   width="811.3797"
   height="303.34982"
   id="svg2"
   version="1.1"
   inkscape:version="0.48.2 r9819"
   sodipodi:docname="Google-Logo.svg"
   style="display:inline">
  <defs
     id="defs4">
    <linearGradient
       inkscape:collect="always"
       id="linearGradient7721">
      <stop
         style="stop-color:#000000;stop-opacity:1;"
         offset="0"
         id="stop7723" />
      <stop
         style="stop-color:#000000;stop-opacity:0;"
         offset="1"
         id="stop7725" />
    </linearGradient>
    <linearGradient
       id="linearGradient7673">
      <stop
         style="stop-color:#ffffff;stop-opacity:1"
         offset="0"
         id="stop7675" />
      <stop
         style="stop-color:#ffffff;stop-opacity:1;"
         offset="1"
         id="stop7677" />
    </linearGradient>
    <linearGradient
       id="linearGradient3674">
      <stop
         style="stop-color:#ffffff;stop-opacity:1;"
         offset="0"
         id="stop3676" />
      <stop
         style="stop-color:#000000;stop-opacity:0;"
         offset="1"
         id="stop3678" />
    </linearGradient>
    <linearGradient
       id="linearGradient3645">
      <stop
         style="stop-color:#ffffff;stop-opacity:1;"
         offset="0"
         id="stop3647" />
      <stop
         style="stop-color:#000000;stop-opacity:0.94736842"
         offset="1"
         id="stop3649" />
    </linearGradient>
    <inkscape:perspective
       sodipodi:type="inkscape:persp3d"
       inkscape:vp_x="0 : 526.18109 : 1"
       inkscape:vp_y="0 : 1000 : 0"
       inkscape:vp_z="744.09448 : 526.18109 : 1"
       inkscape:persp3d-origin="372.04724 : 350.78739 : 1"
       id="perspective10" />
    <inkscape:perspective
       id="perspective2838"
       inkscape:persp3d-origin="0.5 : 0.33333333 : 1"
       inkscape:vp_z="1 : 0.5 : 1"
       inkscape:vp_y="0 : 1000 : 0"
       inkscape:vp_x="0 : 0.5 : 1"
       sodipodi:type="inkscape:persp3d" />
    <inkscape:perspective
       id="perspective2852"
       inkscape:persp3d-origin="0.5 : 0.33333333 : 1"
       inkscape:vp_z="1 : 0.5 : 1"
       inkscape:vp_y="0 : 1000 : 0"
       inkscape:vp_x="0 : 0.5 : 1"
       sodipodi:type="inkscape:persp3d" />
    <linearGradient
       inkscape:collect="always"
       xlink:href="#linearGradient3645"
       id="linearGradient3653"
       x1="154.81558"
       y1="495.32358"
       x2="155.53278"
       y2="513.04901"
       gradientUnits="userSpaceOnUse" />
    <filter
       inkscape:collect="always"
       id="filter3716"
       x="-0.33544657"
       width="1.6708931"
       y="-1.1634955"
       height="3.3269911"
       color-interpolation-filters="sRGB">
      <feGaussianBlur
         inkscape:collect="always"
         stdDeviation="8.0768377"
         id="feGaussianBlur3718" />
    </filter>
    <filter
       inkscape:collect="always"
       id="filter7669"
       x="-0.072500229"
       width="1.1450005"
       y="-0.21161968"
       height="1.4232394"
       color-interpolation-filters="sRGB">
      <feGaussianBlur
         inkscape:collect="always"
         stdDeviation="2.5008616"
         id="feGaussianBlur7671" />
    </filter>
    <linearGradient
       inkscape:collect="always"
       xlink:href="#linearGradient7673"
       id="linearGradient7681"
       x1="45.22744"
       y1="538.96661"
       x2="124.44469"
       y2="559.14996"
       gradientUnits="userSpaceOnUse" />
    <linearGradient
       inkscape:collect="always"
       xlink:href="#linearGradient7721"
       id="linearGradient7727"
       x1="165.77869"
       y1="530.64087"
       x2="165.77869"
       y2="504.18362"
       gradientUnits="userSpaceOnUse"
       gradientTransform="translate(0.81967213,0)" />
    <filter
       inkscape:collect="always"
       id="filter7729"
       x="-0.54470259"
       width="2.0894051"
       y="-0.21243395"
       height="1.4248679"
       color-interpolation-filters="sRGB">
      <feGaussianBlur
         inkscape:collect="always"
         stdDeviation="3.6276283"
         id="feGaussianBlur7731" />
    </filter>
    <filter
       inkscape:collect="always"
       id="filter7768"
       x="-0.06769371"
       width="1.1353874"
       y="-0.16499165"
       height="1.3299834"
       color-interpolation-filters="sRGB">
      <feGaussianBlur
         inkscape:collect="always"
         stdDeviation="3.2367213"
         id="feGaussianBlur7770" />
    </filter>
    <inkscape:perspective
       id="perspective7795"
       inkscape:persp3d-origin="0.5 : 0.33333333 : 1"
       inkscape:vp_z="1 : 0.5 : 1"
       inkscape:vp_y="0 : 1000 : 0"
       inkscape:vp_x="0 : 0.5 : 1"
       sodipodi:type="inkscape:persp3d" />
    <inkscape:perspective
       id="perspective7817"
       inkscape:persp3d-origin="0.5 : 0.33333333 : 1"
       inkscape:vp_z="1 : 0.5 : 1"
       inkscape:vp_y="0 : 1000 : 0"
       inkscape:vp_x="0 : 0.5 : 1"
       sodipodi:type="inkscape:persp3d" />
    <filter
       color-interpolation-filters="sRGB"
       inkscape:collect="always"
       id="filter7768-1"
       x="-0.06769371"
       width="1.1353874"
       y="-0.16499165"
       height="1.3299834">
      <feGaussianBlur
         inkscape:collect="always"
         stdDeviation="3.2367213"
         id="feGaussianBlur7770-6" />
    </filter>
    <filter
       inkscape:collect="always"
       id="filter8010"
       x="-0.6412558"
       width="2.2825115"
       y="-0.1815796"
       height="1.3631592"
       color-interpolation-filters="sRGB">
      <feGaussianBlur
         inkscape:collect="always"
         stdDeviation="4.3412634"
         id="feGaussianBlur8012" />
    </filter>
    <inkscape:perspective
       id="perspective8022"
       inkscape:persp3d-origin="0.5 : 0.33333333 : 1"
       inkscape:vp_z="1 : 0.5 : 1"
       inkscape:vp_y="0 : 1000 : 0"
       inkscape:vp_x="0 : 0.5 : 1"
       sodipodi:type="inkscape:persp3d" />
    <filter
       color-interpolation-filters="sRGB"
       inkscape:collect="always"
       id="filter8010-9"
       x="-0.6412558"
       width="2.2825115"
       y="-0.1815796"
       height="1.3631592">
      <feGaussianBlur
         inkscape:collect="always"
         stdDeviation="4.3412634"
         id="feGaussianBlur8012-0" />
    </filter>
    <filter
       inkscape:collect="always"
       id="filter8110"
       x="-0.19463554"
       width="1.3892711"
       y="-0.26499254"
       height="1.5299851"
       color-interpolation-filters="sRGB">
      <feGaussianBlur
         inkscape:collect="always"
         stdDeviation="9.910051"
         id="feGaussianBlur8112" />
    </filter>
    <filter
       inkscape:collect="always"
       id="filter8118"
       x="-0.17181315"
       width="1.3436263"
       y="-0.23392025"
       height="1.4678406"
       color-interpolation-filters="sRGB">
      <feGaussianBlur
         inkscape:collect="always"
         stdDeviation="8.7480268"
         id="feGaussianBlur8120" />
    </filter>
    <filter
       inkscape:collect="always"
       id="filter8149"
       x="-0.138845"
       width="1.2776901"
       y="-0.23834647"
       height="1.4766929"
       color-interpolation-filters="sRGB">
      <feGaussianBlur
         inkscape:collect="always"
         stdDeviation="5.701753"
         id="feGaussianBlur8151" />
    </filter>
    <filter
       inkscape:collect="always"
       id="filter8173"
       x="-0.31227943"
       width="1.6245589"
       y="-0.38608703"
       height="1.7721741"
       color-interpolation-filters="sRGB">
      <feGaussianBlur
         inkscape:collect="always"
         stdDeviation="4.2175917"
         id="feGaussianBlur8175" />
    </filter>
    <filter
       inkscape:collect="always"
       id="filter8197"
       x="-0.57794684"
       width="2.1558938"
       y="-0.25785139"
       height="1.5157028"
       color-interpolation-filters="sRGB">
      <feGaussianBlur
         inkscape:collect="always"
         stdDeviation="4.9912344"
         id="feGaussianBlur8199" />
    </filter>
    <filter
       inkscape:collect="always"
       id="filter8213"
       x="-0.57907385"
       width="2.1581476"
       y="-0.72858703"
       height="2.4571741"
       color-interpolation-filters="sRGB">
      <feGaussianBlur
         inkscape:collect="always"
         stdDeviation="7.327109"
         id="feGaussianBlur8215" />
    </filter>
    <filter
       inkscape:collect="always"
       id="filter8219"
       x="-0.60103309"
       width="2.2020662"
       y="-0.65816259"
       height="2.3163252"
       color-interpolation-filters="sRGB">
      <feGaussianBlur
         inkscape:collect="always"
         stdDeviation="8.0029751"
         id="feGaussianBlur8221" />
    </filter>
    <filter
       inkscape:collect="always"
       id="filter8251"
       x="-0.085549749"
       width="1.1710995"
       y="-0.40912703"
       height="1.818254"
       color-interpolation-filters="sRGB">
      <feGaussianBlur
         inkscape:collect="always"
         stdDeviation="2.7105059"
         id="feGaussianBlur8253" />
    </filter>
    <filter
       inkscape:collect="always"
       id="filter8275"
       x="-0.31412879"
       width="1.6282576"
       y="-0.53641981"
       height="2.0728397"
       color-interpolation-filters="sRGB">
      <feGaussianBlur
         inkscape:collect="always"
         stdDeviation="4.4114508"
         id="feGaussianBlur8277" />
    </filter>
    <filter
       inkscape:collect="always"
       id="filter8295"
       x="-0.81795937"
       width="2.6359189"
       y="-0.087746292"
       height="1.1754926"
       color-interpolation-filters="sRGB">
      <feGaussianBlur
         inkscape:collect="always"
         stdDeviation="6.4408285"
         id="feGaussianBlur8297" />
    </filter>
    <filter
       inkscape:collect="always"
       id="filter8359"
       x="-0.29928169"
       width="1.5985634"
       y="-0.44108593"
       height="1.8821719"
       color-interpolation-filters="sRGB">
      <feGaussianBlur
         inkscape:collect="always"
         stdDeviation="3.1626648"
         id="feGaussianBlur8361" />
    </filter>
    <filter
       inkscape:collect="always"
       id="filter8419"
       x="-0.13349849"
       width="1.266997"
       y="-0.344657"
       height="1.689314">
      <feGaussianBlur
         inkscape:collect="always"
         stdDeviation="5.2823986"
         id="feGaussianBlur8421" />
    </filter>
    <inkscape:perspective
       id="perspective8467"
       inkscape:persp3d-origin="0.5 : 0.33333333 : 1"
       inkscape:vp_z="1 : 0.5 : 1"
       inkscape:vp_y="0 : 1000 : 0"
       inkscape:vp_x="0 : 0.5 : 1"
       sodipodi:type="inkscape:persp3d" />
    <filter
       inkscape:collect="always"
       id="filter8544"
       x="-0.3079837"
       width="1.6159674"
       y="-0.53366126"
       height="2.0673225">
      <feGaussianBlur
         inkscape:collect="always"
         stdDeviation="6.4971368"
         id="feGaussianBlur8546" />
    </filter>
    <filter
       inkscape:collect="always"
       id="filter8552"
       x="-0.17017459"
       width="1.3403492"
       y="-0.95076324"
       height="2.9015265">
      <feGaussianBlur
         inkscape:collect="always"
         stdDeviation="3.8238634"
         id="feGaussianBlur8554" />
    </filter>
    <filter
       inkscape:collect="always"
       id="filter8564"
       x="-0.099139691"
       width="1.1982794"
       y="-0.14839835"
       height="1.2967967">
      <feGaussianBlur
         inkscape:collect="always"
         stdDeviation="7.1837934"
         id="feGaussianBlur8566" />
    </filter>
    <filter
       inkscape:collect="always"
       id="filter8586"
       x="-0.4648405"
       width="1.929681"
       y="-0.56349127"
       height="2.1269825">
      <feGaussianBlur
         inkscape:collect="always"
         stdDeviation="13.642596"
         id="feGaussianBlur8588" />
    </filter>
    <filter
       inkscape:collect="always"
       id="filter8590"
       x="-0.16222404"
       width="1.3244481"
       y="-0.31908805"
       height="1.6381761">
      <feGaussianBlur
         inkscape:collect="always"
         stdDeviation="7.9782798"
         id="feGaussianBlur8592" />
    </filter>
    <filter
       inkscape:collect="always"
       id="filter8594"
       x="-0.23080222"
       width="1.4616044"
       y="-0.25744398"
       height="1.514888">
      <feGaussianBlur
         inkscape:collect="always"
         stdDeviation="5.3313618"
         id="feGaussianBlur8596" />
    </filter>
    <filter
       inkscape:collect="always"
       id="filter8606"
       x="-0.19642615"
       width="1.3928523"
       y="-0.26721095"
       height="1.5344219">
      <feGaussianBlur
         inkscape:collect="always"
         stdDeviation="6.9154842"
         id="feGaussianBlur8608" />
    </filter>
    <filter
       inkscape:collect="always"
       id="filter8682">
      <feGaussianBlur
         inkscape:collect="always"
         stdDeviation="0.80077951"
         id="feGaussianBlur8684" />
    </filter>
    <filter
       inkscape:collect="always"
       id="filter8686">
      <feGaussianBlur
         inkscape:collect="always"
         stdDeviation="0.80077951"
         id="feGaussianBlur8688" />
    </filter>
    <filter
       inkscape:collect="always"
       id="filter8690">
      <feGaussianBlur
         inkscape:collect="always"
         stdDeviation="0.80077951"
         id="feGaussianBlur8692" />
    </filter>
    <filter
       inkscape:collect="always"
       id="filter8694">
      <feGaussianBlur
         inkscape:collect="always"
         stdDeviation="0.80077951"
         id="feGaussianBlur8696" />
    </filter>
    <filter
       inkscape:collect="always"
       id="filter8698">
      <feGaussianBlur
         inkscape:collect="always"
         stdDeviation="0.80077951"
         id="feGaussianBlur8700" />
    </filter>
    <filter
       inkscape:collect="always"
       id="filter8702">
      <feGaussianBlur
         inkscape:collect="always"
         stdDeviation="0.80077951"
         id="feGaussianBlur8704" />
    </filter>
    <filter
       inkscape:collect="always"
       id="filter8724"
       x="-0.20125298"
       width="1.402506"
       y="-0.41801816"
       height="1.8360363">
      <feGaussianBlur
         inkscape:collect="always"
         stdDeviation="3.0184953"
         id="feGaussianBlur8726" />
    </filter>
    <inkscape:perspective
       id="perspective8736"
       inkscape:persp3d-origin="0.5 : 0.33333333 : 1"
       inkscape:vp_z="1 : 0.5 : 1"
       inkscape:vp_y="0 : 1000 : 0"
       inkscape:vp_x="0 : 0.5 : 1"
       sodipodi:type="inkscape:persp3d" />
    <filter
       inkscape:collect="always"
       id="filter7170"
       x="-0.11709681"
       width="1.2341936"
       y="-0.12305081"
       height="1.2461016">
      <feGaussianBlur
         inkscape:collect="always"
         stdDeviation="1.3443162"
         id="feGaussianBlur7172" />
    </filter>
  </defs>
  <sodipodi:namedview
     id="base"
     pagecolor="#ffffff"
     bordercolor="#666666"
     borderopacity="1.0"
     inkscape:pageopacity="0.0"
     inkscape:pageshadow="2"
     inkscape:zoom="4.4996418"
     inkscape:cx="193.96088"
     inkscape:cy="117.07632"
     inkscape:document-units="px"
     inkscape:current-layer="layer1"
     showgrid="false"
     inkscape:window-width="1600"
     inkscape:window-height="823"
     inkscape:window-x="-9"
     inkscape:window-y="-9"
     inkscape:window-maximized="1" />
  <metadata
     id="metadata7">
    <rdf:RDF>
      <cc:Work
         rdf:about="">
        <dc:format>image/svg+xml</dc:format>
        <dc:type
           rdf:resource="http://purl.org/dc/dcmitype/StillImage" />
        <dc:title />
      </cc:Work>
    </rdf:RDF>
  </metadata>
  <g
     inkscape:groupmode="layer"
     id="layer11"
     inkscape:label="Shadow"
     style="display:inline">
    <path
       style="fill:#999999;fill-opacity:1;stroke:#ff00ff;stroke-width:0.2;stroke-linecap:butt;stroke-linejoin:miter;stroke-miterlimit:4;stroke-opacity:1;stroke-dasharray:none;display:inline;filter:url(#filter8682)"
       d="m 197.166,44.560713 c 0.68663,-1.28993 -19.59859,-14.67911 -47.61981,-19.47704 -24.54677,-4.20302 -55.226311,-4.89691 -81.376096,8.92376 -6.544437,3.45886 -11.469305,6.78158 -16.020554,10.2299 -12.399978,9.39505 -18.765081,18.62039 -23.902486,25.93293 -5.448467,7.7553 -9.553663,19.40839 -11.255323,24.70957 -2.074022,6.461197 -2.490914,12.686277 -3.432293,19.353017 -0.612967,4.34097 -0.495379,9.03629 -0.270739,13.93744 0.503401,10.98309 2.885474,22.9542 8.108439,33.93548 3.936231,8.27593 9.076707,16.03972 14.040801,23.08827 8.117077,11.52549 21.450409,18.9793 29.248548,22.99373 6.119077,3.15006 13.710711,6.56377 26.642155,8.69193 14.666848,2.41377 36.305618,2.36091 70.952758,-3.0595 9.58734,-1.49991 20.07835,-4.64972 31.81082,-7.06686 0.97585,-0.20105 1.58062,-0.51983 2.3551,-0.72125 0.72,-0.18726 1.36075,-0.0733 1.33543,-0.60327 -0.73358,-15.35438 -0.46645,-32.55765 -0.15874,-40.28243 0.0468,-1.17508 0.3287,-4.81031 0.34184,-6.34764 0.0117,-1.37154 0.72733,-1.20703 1.45425,-1.8405 l 7.17213,-7.06967 -56.14755,-0.81967 -19.67213,11.06558 39.03689,-1.63935 0,43.34016 c 0,0 -15.8357,6.60014 -36.98551,6.14758 -15.55991,-0.33295 -34.273399,-3.9239 -52.358754,-17.52052 C 52.082402,169.1241 42.12854,139.57325 41.965091,118.23674 c -0.08233,-10.74741 -0.364852,-18.9713 0.48779,-22.446527 0.751001,-3.06096 1.960559,-10.49547 5.201832,-18.53474 4.395588,-10.9023 11.8329,-22.24825 25.529645,-31.57686 8.4002,-5.72123 19.692554,-11.02765 32.998032,-12.18348 15.30977,-1.32994 26.12902,0.39919 35.1728,3.91282 22.30147,8.66444 26.7675,15.94297 29.99114,18.47447 0.15872,0.12464 0.87662,0.65627 0.61368,1.03683 -0.31511,0.45606 -0.35409,0.95639 -0.50504,1.22925 -1.41879,2.56449 -5.43651,9.26057 -5.43651,9.26057 l 8.50409,-0.92214 22.64345,-21.92622 z"
       id="path3640-5"
       sodipodi:nodetypes="csssssssssssssssssccccccsssssssssssccc" />
    <path
       style="fill:#999999;fill-opacity:1;stroke:none;display:inline;filter:url(#filter8686)"
       d="m 282.11784,82.744633 c -3.16029,0.082 -5.03125,0.34375 -5.03125,0.34375 2.63909,-0.60346 -64.26562,7.42653 -57.78125,73.343757 5.59488,56.87505 68.85963,54.4083 68.85963,54.4083 14.82862,0.70218 70.8295,-14.69707 61.45287,-73.6583 -3.00231,-18.87886 -11.25172,-31.41279 -20.75,-39.531257 -16.27153,-13.90776 -37.26912,-15.15217 -46.75,-14.90625 z m -3.40625,8.9375 c 12.80581,0.0329 34.82143,6.10618 41.8125,45.093757 9.8232,54.7817 -15.17814,59.77513 -20.90625,62.6875 -7.60839,3.86837 -41.87916,7.3728 -54.09375,-48.75 -12.04844,-55.359387 25.52756,-58.020017 23.375,-57.781257 0,0 3.99168,-1.26497 9.8125,-1.25 z"
       id="path7733-2"
       sodipodi:nodetypes="ccscssccssscc" />
    <path
       style="fill:#999999;fill-opacity:1;stroke:none;display:inline;filter:url(#filter8690)"
       d="m 430.3517,81.392243 c -3.16029,0.082 -5.03125,0.34375 -5.03125,0.34375 2.63909,-0.60346 -64.26562,7.42653 -57.78125,73.343757 5.59488,56.87505 68.85963,54.4083 68.85963,54.4083 14.82862,0.70218 70.82951,-14.69707 61.45288,-73.6583 -3.00231,-18.87886 -11.25172,-31.41279 -20.75,-39.531257 -16.27154,-13.90776 -37.26913,-15.15217 -46.75001,-14.90625 z m -3.40625,8.9375 c 12.80581,0.0329 34.82143,6.10618 41.81251,45.093757 9.8232,54.7817 -15.17815,59.77513 -20.90626,62.6875 -7.60839,3.86837 -41.87916,7.3728 -54.09375,-48.75 -12.04844,-55.359387 25.52756,-58.020017 23.375,-57.781257 0,0 3.99168,-1.26497 9.8125,-1.25 z"
       id="path7733-8-1"
       sodipodi:nodetypes="ccscssccssscc" />
    <path
       style="fill:#999999;fill-opacity:1;stroke:none;display:inline;filter:url(#filter8694)"
       d="m 572.96159,85.869633 c -2.39049,-8.9e-4 -7.99974,0.13398 -14.6875,1.34375 -15.80704,2.8594 -37.66017,13.295027 -43.84375,35.031257 -9.56333,33.61656 15.0625,46.96875 15.0625,46.96875 0,0 8.62565,5.0683 12.1875,6.0625 10.7047,2.98797 22.09375,1.59375 22.09375,1.59375 0,0 -4.54113,15.03534 4.5625,25.65625 2.17348,2.53573 0.59375,2.625 0.59375,2.625 0,0 -39.78814,-1.0273 -58.625,18.96875 -18.83686,19.99605 -8.625,38.40625 -8.625,38.40625 0,0 9.87005,24.0649 52.46875,25.28125 42.78799,1.22176 69.25119,-24.12098 71.5625,-43.25 1.16176,-9.61504 -0.15199,-18.62246 -4.96875,-26.5 -4.68484,-7.66179 -12.73495,-14.25758 -20.59375,-20.6875 -4.88312,-3.99529 -8.27968,-6.04648 -10.46875,-8.34375 -2.06806,-2.17028 -2.41695,-4.96545 -2.34375,-7.0625 0.10223,-2.92861 1.64529,-6.52013 6.78125,-12.46875 9.36966,-10.85221 11.74513,-9.50129 17.40625,-17.625 1.69717,-2.43544 2.94559,-5.98852 4.6875,-11.28125 1.04942,-3.18863 0.87493,-6.48902 0.875,-9.5625 1.6e-4,-6.64497 -1.5956,-12.97529 -4.25,-18.3125 -4.93287,-9.91855 -13.40034,-16.357247 -13.5625,-16.843757 l 14.84375,0 16.8125,-9.84375 -56.71875,-0.15625 c 0,0 -0.45317,3e-4 -1.25,0 z m -12.1875,9.21875 c 8.65148,0.0594 21.64918,4.541287 29.4375,27.906257 13.36498,40.09498 -14.625,46.21875 -14.625,46.21875 0,0 -32.07301,4.93896 -37.96875,-30.71875 -6.00583,-36.32354 8.62087,-38.28845 14.34375,-41.875007 0,0 3.62161,-1.56691 8.8125,-1.53125 z m 17.71875,118.125007 c 0,0 25.53601,15.65215 27.9375,27.125 2.69061,12.85408 2.8717,22.21612 -16.625,32.46875 -5.75553,3.02663 -15.85735,3.37912 -22.21875,3.40625 -15.63565,0.0667 -27.44523,-5.95182 -33.28125,-8.96875 -3.03295,-1.56789 -19.87818,-20.48428 -7.40625,-37.40625 3.1372,-4.25656 6.61353,-6.14366 9.84375,-8.3125 6.87438,-4.61559 13.62228,-6.76556 26.34375,-7.875 4.23123,-0.36901 9.86959,-0.0583 15.40625,-0.4375 z"
       id="path8122-4"
       sodipodi:nodetypes="csscscscscsssssssssssccccccscscccsssssssc" />
    <path
       style="fill:#999999;fill-opacity:1;stroke:none;display:inline;filter:url(#filter8698)"
       d="m 628.01613,27.005173 19.93485,-9.65916 37.81455,0.20552 c 0,0 -10.07018,4.93233 -10.89223,12.53634 -0.82206,7.60402 0,156.807097 0,156.807097 0.21047,3.90476 -1.52321,8.52882 9.04261,9.55639 13.19299,1.28307 15.41354,1.54136 15.41354,1.54136 l -9.24813,6.98747 -49.32333,-0.41103 5.34336,-5.75439 c 0,0 2.8772,-2.26065 2.67168,-11.71429 -0.20551,-9.45363 -0.30827,-159.992557 -0.30827,-159.992557 l -20.44863,-0.10275 z"
       id="path8279-8"
       sodipodi:nodetypes="cccscsccccscc" />
    <path
       style="fill:#999999;fill-opacity:1;stroke:none;display:inline;filter:url(#filter8702)"
       d="m 767.92414,82.263742 c -0.94278,0.0042 -4.68824,-0.205354 -5.70828,-0.126889 -36.02015,2.770781 -52.64594,23.172697 -58.1875,41.812507 -5.54156,18.6398 -1.02732,45.84682 6.78125,57.9375 7.80856,12.09068 24.18042,27.18372 50.125,27.6875 25.94459,0.50378 39.82374,-11.85501 48.375,-20.40625 0.56675,-0.56675 1,-1.75 1,-1.75 0,0 -16.35916,9.24552 -33,9.0625 -18.01841,-0.19817 -46.18206,-17.6872 -53.125,-54.40625 6.7694,-0.53539 12.43719,-0.88303 19.875,-0.75 l 63.25,-25.9375 c 0,0 -1.53234,-8.23614 -7.9375,-16.34376 -4.00236,-5.06617 -10.52043,-9.925845 -17.875,-13.187497 -4.90146,-2.173733 -7.22539,-2.36162 -13.57297,-3.591861 z m -15.61453,8.841861 c 0.83872,-0.01717 1.66434,0.0062 2.46875,0.03125 4.98585,0.15552 9.108,1.170025 12.78125,3.53125 2.46043,1.581603 4.44501,3.911957 7.375,6.468747 5.66485,4.94331 5.53125,11.34376 5.53125,11.34376 -0.10026,1.44571 1.18943,3.34042 -2.0625,5.34375 -8.23072,5.07044 -25.68259,11.75648 -40.25,17.75 -4.82533,1.98531 -9.90029,3.67147 -13.46875,5.5 0,0 -2.9721,-16.99767 2,-31.03125 2.65726,-7.50003 8.3786,-13.990358 16.25,-16.968757 4.04709,-1.531347 6.85883,-1.917253 9.375,-1.96875 z"
       id="path8363-6"
       sodipodi:nodetypes="cssssscscccssccssscsscssc" />
  </g>
  <g
     inkscape:label="Basic"
     inkscape:groupmode="layer"
     id="layer1"
     style="display:inline"
     transform="translate(22.808233,-344.01722)">
    <path
       style="fill:#1b4eed;fill-opacity:1;stroke:none;stroke-width:0.20000000000000001;stroke-linecap:butt;stroke-linejoin:miter;stroke-miterlimit:4;stroke-opacity:1;stroke-dasharray:none"
       d="m 173.36066,386.37858 c 0.68663,-1.28993 -19.59859,-14.67911 -47.61981,-19.47704 -24.54677,-4.20302 -55.226311,-4.89691 -81.376096,8.92376 -6.544437,3.45886 -11.469305,6.78158 -16.020554,10.2299 -12.399978,9.39505 -18.765081,18.62039 -23.902486,25.93293 -5.448467,7.7553 -9.5536635,19.40839 -11.2553232,24.70957 -2.0740216,6.4612 -2.4909136,12.68627 -3.4322928,19.35301 -0.612967,4.34097 -0.495379,9.03629 -0.270739,13.93744 0.503401,10.98309 2.8854735,22.9542 8.1084383,33.93548 3.9362318,8.27593 9.0767073,16.03972 14.0408017,23.08827 8.117077,11.52549 21.450409,18.9793 29.248548,22.99373 6.119077,3.15006 13.710711,6.56377 26.642155,8.69193 14.666851,2.41377 36.305618,2.36091 70.952758,-3.0595 9.58734,-1.49991 20.07835,-4.64972 31.81082,-7.06686 0.97585,-0.20105 1.58062,-0.51983 2.3551,-0.72125 0.72,-0.18726 1.36075,-0.0733 1.33543,-0.60327 -0.73358,-15.35438 -0.46645,-32.55765 -0.15874,-40.28243 0.0468,-1.17508 0.3287,-4.81031 0.34184,-6.34764 0.0117,-1.37154 0.72733,-1.20703 1.45425,-1.8405 l 7.17213,-7.06967 -56.14755,-0.81967 -19.67213,11.06558 39.03689,-1.63935 0,43.34016 c 0,0 -15.8357,6.60014 -36.98551,6.14758 C 93.458674,549.46779 74.745191,545.87684 56.659836,532.28022 28.277062,510.94196 18.3232,481.39111 18.159751,460.0546 c -0.08233,-10.74741 -0.364852,-18.97129 0.48779,-22.44652 0.751001,-3.06096 1.960559,-10.49547 5.201832,-18.53474 4.395588,-10.9023 11.8329,-22.24825 25.529645,-31.57686 8.4002,-5.72123 19.692554,-11.02765 32.998031,-12.18348 15.309769,-1.32994 26.129021,0.39919 35.172801,3.91282 22.30147,8.66444 26.7675,15.94297 29.99114,18.47447 0.15872,0.12464 0.87662,0.65627 0.61368,1.03683 -0.31511,0.45606 -0.35409,0.95639 -0.50504,1.22925 -1.41879,2.56449 -5.43651,9.26057 -5.43651,9.26057 l 8.50409,-0.92214 22.64345,-21.92622 z"
       id="path3640"
       sodipodi:nodetypes="csssssssssssssssssccccccsssssssssssccc" />
    <path
       style="fill:#ee2b35;fill-opacity:1;stroke:none"
       d="m 258.3125,424.5625 c -3.16029,0.082 -5.03125,0.34375 -5.03125,0.34375 2.63909,-0.60346 -64.26562,7.42653 -57.78125,73.34375 1.81212,18.42123 10.50602,29.7853 20.30874,37.85619 20.46291,16.84778 48.55089,16.55211 48.55089,16.55211 9.85343,0.46659 35.72313,-7.84019 50.67354,-29.64948 7.54876,-11.01194 13.92531,-24.22657 10.77933,-44.00882 -3.00231,-18.87886 -11.25172,-31.41278 -20.75,-39.53125 -16.27153,-13.90776 -37.26912,-15.15217 -46.75,-14.90625 z m -3.40625,8.9375 c 12.80581,0.0329 34.82143,6.10618 41.8125,45.09375 9.8232,54.7817 -15.17814,59.77513 -20.90625,62.6875 -7.60839,3.86837 -41.87916,7.3728 -54.09375,-48.75 -12.04844,-55.35938 25.52756,-58.02001 23.375,-57.78125 0,0 3.99168,-1.26497 9.8125,-1.25 z"
       id="path7733"
       sodipodi:nodetypes="ccsscsssccssscc" />
    <path
       style="fill:#1643ec;fill-opacity:1;stroke:none;display:inline"
       d="m 549.15625,427.6875 c -2.39049,-8.9e-4 -7.99974,0.13398 -14.6875,1.34375 -15.80704,2.8594 -37.66017,13.29503 -43.84375,35.03125 -9.56333,33.61656 15.0625,46.96875 15.0625,46.96875 0,0 8.62565,5.0683 12.1875,6.0625 10.7047,2.98797 22.09375,1.59375 22.09375,1.59375 0,0 -4.54113,15.03534 4.5625,25.65625 2.17348,2.53573 0.59375,2.625 0.59375,2.625 0,0 -39.78814,-1.0273 -58.625,18.96875 -18.83686,19.99605 -8.625,38.40625 -8.625,38.40625 0,0 9.87005,24.0649 52.46875,25.28125 42.78799,1.22176 69.25119,-24.12098 71.5625,-43.25 1.16176,-9.61504 -0.15199,-18.62246 -4.96875,-26.5 -4.68484,-7.66179 -12.73495,-14.25758 -20.59375,-20.6875 -4.88312,-3.99529 -8.27968,-6.04648 -10.46875,-8.34375 -2.06806,-2.17028 -2.41695,-4.96545 -2.34375,-7.0625 0.10223,-2.92861 1.64529,-6.52013 6.78125,-12.46875 9.36966,-10.85221 11.74513,-9.50129 17.40625,-17.625 1.69717,-2.43544 2.94559,-5.98852 4.6875,-11.28125 1.04942,-3.18863 0.87493,-6.48902 0.875,-9.5625 1.6e-4,-6.64497 -1.5956,-12.97529 -4.25,-18.3125 -4.93287,-9.91854 -13.40034,-16.35724 -13.5625,-16.84375 l 14.84375,0 16.8125,-9.84375 -56.71875,-0.15625 c 0,0 -0.45317,3e-4 -1.25,0 z m -12.1875,9.21875 c 8.65148,0.0594 21.64918,4.54129 29.4375,27.90625 13.36498,40.09498 -14.625,46.21875 -14.625,46.21875 0,0 -32.07301,4.93896 -37.96875,-30.71875 -6.00583,-36.32353 8.62087,-38.28844 14.34375,-41.875 0,0 3.62161,-1.56691 8.8125,-1.53125 z m 17.71875,118.125 c 0,0 25.53601,15.65215 27.9375,27.125 2.69061,12.85408 2.8717,22.21612 -16.625,32.46875 -5.75553,3.02663 -15.85735,3.37912 -22.21875,3.40625 -15.63565,0.0667 -27.44523,-5.95182 -33.28125,-8.96875 -3.03295,-1.56789 -19.87818,-20.48428 -7.40625,-37.40625 3.1372,-4.25656 6.61353,-6.14366 9.84375,-8.3125 6.87438,-4.61559 13.62228,-6.76556 26.34375,-7.875 4.23123,-0.36901 9.86959,-0.0583 15.40625,-0.4375 z"
       id="path8122"
       sodipodi:nodetypes="csscscscscsssssssssssccccccscscccsssssssc" />
    <path
       style="fill:#00b817;fill-opacity:1;stroke:none"
       d="m 604.21079,368.82304 19.93485,-9.65916 37.81455,0.20552 c 0,0 -10.07018,4.93233 -10.89223,12.53634 -0.82206,7.60402 0,156.80709 0,156.80709 0.21047,3.90476 -1.52321,8.52882 9.04261,9.55639 13.19299,1.28307 15.41354,1.54136 15.41354,1.54136 l -9.24813,6.98747 -49.32333,-0.41103 5.34336,-5.75439 c 0,0 2.8772,-2.26065 2.67168,-11.71429 -0.20551,-9.45363 -0.30827,-159.99255 -0.30827,-159.99255 l -20.44863,-0.10275 z"
       id="path8279"
       sodipodi:nodetypes="cccscsccccscc" />
    <path
       style="fill:#ee2b34;fill-opacity:1;stroke:none;display:inline"
       d="m 767.46833,80.335039 c -0.94278,0.0042 -5.22954,-0.476004 -6.24958,-0.397539 -36.02015,2.770781 -52.64594,23.1727 -58.1875,41.8125 -5.54156,18.6398 -1.02732,45.84682 6.78125,57.9375 7.80856,12.09068 24.18042,27.18372 50.125,27.6875 25.94459,0.50378 39.82374,-11.85501 48.375,-20.40625 0.56675,-0.56675 1,-1.75 1,-1.75 0,0 -16.35916,9.24552 -33,9.0625 -18.01841,-0.19817 -46.18206,-17.6872 -53.125,-54.40625 6.7694,-0.53539 12.43719,-0.88303 19.875,-0.75 l 63.25,-25.9375 c 0,0 -1.53234,-8.23613 -7.9375,-16.34375 -4.00236,-5.066173 -10.52043,-9.925848 -17.875,-13.1875 -4.90146,-2.173733 -6.68409,-2.09097 -13.03167,-3.321211 z M 751.3125,88.90625 c 0.83872,-0.01717 1.66434,0.0062 2.46875,0.03125 4.98585,0.15552 9.108,1.170025 12.78125,3.53125 2.46043,1.581603 4.44501,3.911957 7.375,6.46875 5.66485,4.94331 5.53125,11.34375 5.53125,11.34375 -0.10026,1.44571 1.18943,3.34042 -2.0625,5.34375 -8.23072,5.07044 -25.68259,11.75648 -40.25,17.75 -4.82533,1.98531 -9.90029,3.67147 -13.46875,5.5 0,0 -2.9721,-16.99767 2,-31.03125 2.65726,-7.50002 8.3786,-13.990351 16.25,-16.96875 4.04709,-1.531347 6.85883,-1.917253 9.375,-1.96875 z"
       id="path8363"
       sodipodi:nodetypes="cssssscscccssccssscsscssc"
       transform="translate(-22.808233,344.01722)" />
    <path
       style="opacity:0.39903846;fill:#000000;stroke:none;filter:url(#filter8586)"
       d="m 18.755079,155.60573 c 0,0 61.241073,56.26524 68.896207,57.79627 7.655135,1.53102 -15.693025,-3.44481 -15.693025,-3.44481 0,0 -30.221893,-17.59092 -32.53432,-19.90335 -1.913783,-1.91379 -16.841295,-23.34816 -16.841295,-26.02746 0,-2.6793 -3.827567,-8.8034 -3.827567,-8.42065 z"
       id="path8568"
       transform="translate(-22.808233,344.01722)"
       sodipodi:nodetypes="cscssc" />
    <path
       style="fill:#fcb110;fill-opacity:1;stroke:none;display:inline"
       d="m 405.27593,424.25327 c -3.16029,0.082 -5.03125,0.34375 -5.03125,0.34375 2.63909,-0.60346 -64.26562,7.42653 -57.78125,73.34375 1.81212,18.42123 10.50602,29.7853 20.30874,37.85619 20.46291,16.84778 48.55089,16.55211 48.55089,16.55211 9.85343,0.46659 35.72313,-7.84019 50.67354,-29.64948 7.54876,-11.01194 13.92531,-24.22657 10.77933,-44.00882 -3.00231,-18.87886 -11.25172,-31.41278 -20.75,-39.53125 -16.27153,-13.90776 -37.26912,-15.15217 -46.75,-14.90625 z m -3.40625,8.9375 c 12.80581,0.0329 34.82143,6.10618 41.8125,45.09375 9.8232,54.7817 -15.17814,59.77513 -20.90625,62.6875 -7.60839,3.86837 -41.87916,7.3728 -54.09375,-48.75 -12.04844,-55.35938 25.52756,-58.02001 23.375,-57.78125 0,0 3.99168,-1.26497 9.8125,-1.25 z"
       id="path7733-4"
       sodipodi:nodetypes="ccsscsssccssscc" />
  </g>
  <g
     inkscape:groupmode="layer"
     id="layer3"
     inkscape:label="Secondary"
     style="display:inline"
     transform="translate(22.808233,-344.01722)">
    <path
       style="opacity:0.60526315;fill:url(#linearGradient3653);fill-opacity:1;stroke:none;filter:url(#filter3716)"
       d="m 119.2623,495.39497 12.70491,2.7664 c -0.0118,0.1064 6.7379,1.36379 13.93443,2.04917 0,0 2.15164,0.20491 2.15164,0.20491 5.61645,0.86275 0.57159,7.27461 6.04508,7.27461 0,0 6.05571,2.07214 10.65574,-5.32788 2.35656,-3.79098 5.32786,-6.14754 5.32786,-6.14754 l 6.96722,-4.5082 -50.40984,-0.40983 -7.37704,4.09836 z"
       id="path3643"
       sodipodi:nodetypes="ccsscscccc"
       transform="matrix(0.88539699,0,0,0.79297218,25.585651,104.66616)" />
    <path
       style="opacity:0.28900003;fill:#ffffff;stroke:none;filter:url(#filter8564)"
       d="m 163.11475,380.64087 -12.70491,6.14754 c 0,0 -37.70492,-19.67213 -62.295086,-16.39344 -24.590164,3.27868 -50.819672,9.01639 -66.393443,35.2459 -15.57377,26.22951 -22.13114707,41.39344 -16.8032782,64.7541 5.3278692,23.36066 -15.1639348,0 -15.1639348,0 0,0 -5.737705,-41.39344 27.459017,-75 33.196721,-33.60656 80.737705,-30.73771 80.737705,-30.73771 0,0 35.65574,2.86886 45.90164,6.14755 10.2459,3.27868 20.90164,10.65573 19.26229,9.83606 z"
       id="path7589"
       sodipodi:nodetypes="ccssscscsc" />
    <path
       style="opacity:0.11499999;fill:url(#linearGradient7681);fill-opacity:1;stroke:none;filter:url(#filter7669)"
       d="m 46.721311,524.90317 -11.065573,2.04918 c 0,0 26.229508,22.95082 46.311475,25.40983 20.081967,2.45902 36.475407,-1.63934 36.475407,-1.63934 0,0 -36.065571,-1.22951 -49.590161,-9.83607 -13.52459,-8.60655 -23.360656,-17.21311 -22.131148,-15.9836 z"
       id="path7627" />
    <path
       style="opacity:0.16826926;fill:url(#linearGradient7727);fill-opacity:1;stroke:none;filter:url(#filter7729)"
       d="m 173.77049,510.14907 -15.16393,5.7377 1.66507,28.63938 -27.2583,7.77405 -5.55432,4.98001 47.13115,-9.83606 -0.81967,-37.29508 z"
       id="path7683"
       sodipodi:nodetypes="ccccccc" />
    <path
       style="opacity:0.30288463;fill:#ffffff;stroke:none;filter:url(#filter7768)"
       d="m 197.54098,469.98513 12.69012,9.00654 c 0,0 7.39185,-39.33441 25.42464,-45.48195 18.03278,-6.14754 23.36065,-5.7377 23.36065,-5.7377 0,0 34.08952,9.39817 38.93443,22.13115 14.47267,38.03582 14.34426,-3.27869 14.34426,-3.27869 0,0 -24.18033,-25.81967 -57.78688,-22.13115 -33.60656,3.68853 -55.73771,31.14754 -56.96722,45.4918 z"
       id="path7738"
       inkscape:connector-curvature="0"
       sodipodi:nodetypes="ccscscsc" />
    <path
       style="opacity:0.59615383;fill:#000000;stroke:none;display:inline;filter:url(#filter8110)"
       d="m 207.25173,508.25833 c 0,0 -5.14677,-32.43856 0.66649,-32.96167 5.4692,-0.49214 7.65074,37.43998 10.95988,41.38415 14.8726,17.72664 26.19696,30.76432 51.6068,28.30531 25.40983,-2.45902 41.71217,-16.54915 42.49507,-59.58262 0.52949,-29.10386 9.01639,-2.54291 9.01639,-2.54291 -20.26432,44.56072 -24.49921,63.58814 -55.23966,65.68655 -21.92007,1.49631 -54.08135,-28.81798 -59.50497,-40.28881 z"
       id="path7772"
       sodipodi:nodetypes="csssscsc"
       inkscape:connector-curvature="0" />
    <path
       style="opacity:0.30288463;fill:#ffffff;stroke:none;display:inline;filter:url(#filter7768-1)"
       d="m 348.17334,467.1904 10.24591,1.22951 c 0,0 9.83606,-31.55738 27.86885,-37.70492 18.03278,-6.14754 23.36065,-5.7377 23.36065,-5.7377 0,0 34.0164,9.42623 38.93443,22.13115 4.91803,12.70491 14.34426,-3.27869 14.34426,-3.27869 0,0 -24.18033,-25.81967 -57.78688,-22.13115 -33.60656,3.68853 -55.73771,31.14754 -56.96722,45.4918 z"
       id="path7738-5" />
    <path
       style="opacity:0.78365383;fill:#745500;fill-opacity:1;stroke:none;display:inline;filter:url(#filter8118)"
       d="m 352.03374,503.27381 c 0,0 8.79533,-20.3267 3.54573,-20.46003 -5.2496,-0.13333 5.61048,24.22236 13.25851,32.8558 19.28752,21.77261 26.05075,32.25559 51.46059,29.79657 21.12818,-2.04467 29.78199,-8.37853 34.51789,-37.28734 0.95973,-5.8584 4.54861,-19.9412 4.61055,-27.19344 0.15307,-17.92082 10.88022,4.30384 10.88022,4.30384 -18.26079,42.32019 -22.2077,60.21905 -54.36541,62.7788 -23.26473,1.85187 -41.81938,-9.10346 -63.90808,-44.7942 z"
       id="path7772-8"
       sodipodi:nodetypes="czsssscsc"
       inkscape:connector-curvature="0" />
    <path
       style="opacity:0.19158879;fill:#000000;stroke:#000000;stroke-width:1px;stroke-linecap:butt;stroke-linejoin:miter;stroke-opacity:1;display:inline;filter:url(#filter8010)"
       d="m 372.10743,443.78668 c 0,0 -15.64909,6.95515 -16.22868,22.02464 -0.5796,15.06949 12.17151,35.35533 12.17151,35.35533 0,0 -11.59192,-30.71857 4.05717,-57.37997 z"
       id="path7846"
       sodipodi:nodetypes="cscc"
       inkscape:connector-curvature="0" />
    <path
       style="opacity:0.27961539;fill:#000000;stroke:#000000;stroke-width:1px;stroke-linecap:butt;stroke-linejoin:miter;stroke-opacity:1;display:inline;filter:url(#filter8010-9)"
       d="m 224.03206,445.81317 c 0,0 -12.98268,6.95515 -13.56227,22.02464 -0.5796,15.06949 9.5051,35.35533 9.5051,35.35533 0,0 -11.59192,-30.71857 4.05717,-57.37997 z"
       id="path7846-0"
       sodipodi:nodetypes="cscc"
       inkscape:connector-curvature="0" />
    <path
       style="opacity:0.36538463;fill:#ffffff;stroke:none;display:inline;filter:url(#filter8149)"
       d="m 570.09549,441.16392 c -3.69925,8.63158 -17.67419,-6.57644 -17.67419,-6.57644 0,0 -15.20803,-6.16542 -23.01756,-0.82206 -7.80953,5.34336 -16.03008,10.27569 -16.03008,10.27569 0,0 -9.04261,2.05514 -9.86467,22.60653 -0.82205,20.55139 3.95588,30.33343 3.95588,30.33343 0,0 -19.1639,-29.51138 -15.46465,-36.49885 3.69925,-6.98747 10.97773,-17.03195 20.14036,-23.01755 8.2979,-5.42071 15.71803,-9.14159 33.70427,-9.86467 17.6647,-0.71015 43.97997,0.82206 43.97997,0.82206 -7.74165,-1.16657 -15.73523,7.07692 -19.72933,12.74186 z"
       id="path8131"
       sodipodi:nodetypes="ccscscssscc" />
    <path
       style="opacity:0.26442309;fill:#ffffff;stroke:none;filter:url(#filter8173)"
       d="m 566.80727,501.17397 c 0,0 -2.8772,9.86467 -7.3985,13.56392 -4.52131,3.69925 -4.11028,11.9198 -4.11028,11.9198 0,0 -6.57644,2.46617 -9.86467,-1.64411 -3.28822,-4.11028 -1.64411,-6.16542 -8.22055,-9.86467 -6.57645,-3.69925 0.41103,-4.11027 0.41103,-4.11027 0,0 6.16541,2.46616 13.15288,0.41102 6.98748,-2.05513 16.03009,-10.27569 16.03009,-10.27569 z"
       id="path8155" />
    <path
       style="opacity:0.22596154;fill:#000000;stroke:none;filter:url(#filter8213)"
       d="m 498.57666,504.46219 c 0,0 7.3985,-14.38597 12.33083,-7.3985 4.93234,6.98747 9.45364,18.90728 14.797,20.14036 5.34336,1.23309 2.46617,2.05514 2.46617,2.05514 0,0 -5.75439,0.41103 -11.50878,-2.05514 -5.75439,-2.46616 -16.44111,-8.63158 -18.08522,-12.74186 z"
       id="path8177" />
    <path
       style="opacity:0.15384617;fill:#ffffff;stroke:none;filter:url(#filter8197)"
       d="m 560.64185,449.38447 c 0,0 21.37344,-0.82205 20.55139,19.72934 -0.82206,20.55138 -11.50878,26.7168 -11.50878,26.7168 0,0 2.05514,-17.26317 -0.82205,-26.30578 -2.8772,-9.04261 -9.45364,-20.55138 -8.22056,-20.14036 z"
       id="path8195" />
    <path
       style="opacity:0.4567308;fill:#ffffff;stroke:none;filter:url(#filter8219)"
       d="m 569.68446,534.87825 c 0,0 -4.11028,4.11027 -9.04261,2.87719 -4.93233,-1.23308 29.18297,26.30578 29.18297,26.30578 0,0 -2.46617,-13.97495 1.64411,-10.68673 4.11028,3.28823 -12.74186,-13.15288 -15.61905,-14.79699 -2.8772,-1.64412 -6.16542,-3.28823 -6.16542,-3.69925 z"
       id="path8217" />
    <path
       style="opacity:0.36538463;fill:#ffffff;stroke:none;filter:url(#filter8594)"
       d="m 535.98019,547.62011 c 0,0 -36.17045,6.98747 -41.10278,21.78447 -4.93233,14.797 -6.57644,16.03008 -6.57644,25.48372 0,9.45364 -10.2757,-11.09775 -6.98748,-19.72933 3.28823,-8.63159 16.85214,-18.08523 16.85214,-18.08523 0,0 18.90728,-8.22055 27.12783,-8.63158 8.22056,-0.41103 11.50878,-0.41103 10.68673,-0.82205 z"
       id="path8223" />
    <path
       style="opacity:0.4375;fill:#ffffff;stroke:none;filter:url(#filter8251)"
       d="m 505.97516,605.57502 -5.75439,1.64411 c 0,0 12.64688,16.59843 48.50128,13.97494 16.85213,-1.23308 27.53885,-12.74186 27.53885,-12.74186 0,0 -13.97494,11.50878 -36.17044,9.45364 -22.1955,-2.05514 -33.70427,-11.50878 -34.1153,-12.33083 z"
       id="path8245"
       sodipodi:nodetypes="ccscsc" />
    <path
       style="opacity:0.75961537;fill:#000000;stroke:none;filter:url(#filter8590)"
       d="m 598.4564,570.22663 c 0,0 -6.57644,10.68672 -7.80952,18.49625 -1.23309,7.80953 0.82205,19.72933 -12.33084,25.89475 -13.15288,6.16542 -33.70427,13.56392 -43.97997,12.74186 -10.27569,-0.82206 -35.34838,-7.80953 -39.86969,-10.27569 -4.5213,-2.46617 -11.9198,-6.16542 -11.9198,-6.16542 0,0 16.85214,22.60653 57.95491,18.90728 41.10278,-3.69925 61.41874,-31.36162 60.01005,-46.85717 -0.82206,-9.04261 -0.41103,-12.74186 -2.05514,-12.74186 z"
       id="path8255"
       sodipodi:nodetypes="csssscssc" />
    <path
       style="opacity:0.57211537;fill:#000000;stroke:none;filter:url(#filter8275)"
       d="m 539.67944,555.01861 c 0,0 9.04261,-9.86467 15.61905,-6.16542 6.57644,3.69925 18.08522,18.90728 18.08522,18.90728 l -18.49625,-12.74186 -15.20802,0 z"
       id="path8261" />
    <path
       style="opacity:0.6442308;fill:#000000;stroke:none;filter:url(#filter8295)"
       d="m 660.62588,359.47521 c 0,0 -13.07883,0.87192 -15.98523,7.55665 -2.90641,6.68473 -2.49779,166.04461 -2.49779,166.04461 0,0 7.5,7.85714 8.57142,-3.92857 1.07143,-11.78572 10e-6,-15.35715 10e-6,-15.35715 l 0.35714,-138.57142 c 0,0 0.35714,-7.85715 5.71428,-11.07143 5.35715,-3.21429 4.28572,-4.64286 3.84017,-4.67269 z"
       id="path8281"
       sodipodi:nodetypes="cscsccsc" />
    <path
       style="opacity:0.49519234;fill:#000000;stroke:none;filter:url(#filter8552)"
       d="m 620,545.93361 c 0,0 8.57143,-9.64286 17.14286,-9.28571 8.57143,0.35714 10,5.71428 17.85714,6.07143 7.85714,0.35714 18.92857,-1.78572 18.92857,-1.78572 l -7.14286,5.35714 L 620,545.93361 z"
       id="path8299" />
    <path
       style="opacity:0.53846154;fill:#000000;stroke:none;filter:url(#filter8359)"
       d="m 625.35714,382.00504 5.35715,-12.5 c 0,0 4.64285,-5.35714 -5.35715,-4.64286 -10,0.71429 -18.92857,3.57143 -18.92857,3.57143 l 18.21429,0 0.71428,13.57143 z"
       id="path8349" />
    <path
       style="opacity:0.41346154;fill:#000000;stroke:none;filter:url(#filter8544)"
       d="m 755.66751,132.82086 c 0,0 5.96409,-5.90512 13.44133,-9.94419 5.0017,-2.70183 12.62898,-3.7336 12.3857,-4.6967 -0.83822,-3.31838 -0.88504,-7.57572 3.644,-9.0367 7.80856,-2.51889 16.87657,-5.54156 16.87657,-5.54156 0,0 4.28212,5.28967 4.28212,7.55668 0,2.267 0,2.267 0,2.267 l -32.41487,13.70966 -18.21485,5.68581 z"
       id="path8369"
       transform="translate(-22.808233,344.01722)"
       sodipodi:nodetypes="cssscsccc" />
    <path
       style="opacity:0.40865383;fill:#ffffff;stroke:none;filter:url(#filter8606)"
       d="m 783.6272,84.206246 1.00756,11.335013 c -1.23254,-2.211571 -0.89428,-3.63774 -4.534,-7.052897 l -10.57935,-4.785894 c 0,0 -5.79345,-1.511335 -8.81612,-1.511335 -10.32746,0 -25.18892,4.282116 -27.20403,6.297229 -2.01511,2.015113 -9.53241,17.148158 -10.53997,21.430278 -1.00755,4.28211 -14.59685,20.70701 -14.59685,20.70701 0,0 -9.34994,20.56604 -8.11255,5.46977 1.25945,-15.36524 6.29723,-23.67759 6.29723,-23.67759 0,0 9.82368,-19.143574 23.67758,-25.188914 13.8539,-6.04534 26.95214,-8.816121 37.53149,-7.304786 10.57934,1.511335 16.37279,4.534005 15.86901,4.282116 z"
       id="path8399"
       transform="translate(-22.808233,344.01722)"
       sodipodi:nodetypes="ccccssscscssc" />
    <path
       style="opacity:0.375;fill:#000000;stroke:none;filter:url(#filter8419)"
       d="m 707.30479,170.35234 c 0,0 20.40302,14.35768 27.20403,20.15114 6.801,5.79345 26.44836,11.5869 34.50881,11.5869 8.06046,0 30.98237,-8.56423 32.99748,-10.07557 2.01512,-1.51133 -8.56423,8.06045 -8.56423,8.06045 0,0 -15.61713,7.0529 -30.98237,7.0529 -15.36524,0 -38.79093,-7.55667 -46.3476,-19.39547 -7.55668,-11.83879 -8.81612,-17.63224 -8.81612,-17.38035 z"
       id="path8417"
       transform="translate(-22.808233,344.01722)" />
    <path
       style="opacity:0.23076926;fill:#000000;stroke:#000000;stroke-width:1px;stroke-linecap:butt;stroke-linejoin:miter;stroke-opacity:1;filter:url(#filter8724)"
       d="m 727.50684,102.79827 c -14.18134,18.21579 -4.73732,3.6609 2.70649,-8.119493 0,0 7.57854,-9.283287 17.3216,-9.202095 6.14916,0.05124 13.83458,0.65329 19.54691,2.671678 4.78294,1.690001 8.06123,4.817937 9.06342,5.167119 4.12269,1.436422 -12.64199,-2.967099 -12.64199,-2.967099 0,0 0,0 0,0 0,0 -13.26185,-4.871698 -24.89979,1.623899 -8.99921,5.022818 -47.90502,63.602711 -11.09664,10.825991 z"
       id="path8706"
       transform="translate(-22.808233,344.01722)"
       sodipodi:nodetypes="ccssscssc" />
    <path
       style="opacity:0.57943923;fill:none;stroke:#ffffff;stroke-width:3;stroke-linecap:butt;stroke-linejoin:miter;stroke-miterlimit:4;stroke-opacity:1;stroke-dasharray:none;filter:url(#filter7170)"
       d="m 445.56786,517.18086 c -1.14426,4.95846 -3.92362,12.60066 -11.41571,18.61228 -5.60176,4.49482 -16.13721,7.60745 -16.13721,7.60745"
       id="path7144"
       inkscape:connector-curvature="0"
       sodipodi:nodetypes="csc" />
    <path
       sodipodi:nodetypes="csc"
       inkscape:connector-curvature="0"
       id="path7174"
       d="m 299.334,517.18086 c -1.14426,4.95846 -3.92362,12.60066 -11.41571,18.61228 -5.60176,4.49482 -16.13721,7.60745 -16.13721,7.60745"
       style="opacity:0.43925234;fill:none;stroke:#ffffff;stroke-width:3;stroke-linecap:butt;stroke-linejoin:miter;stroke-miterlimit:4;stroke-opacity:1;stroke-dasharray:none;filter:url(#filter7170)"
       transform="matrix(0.99874635,-0.05005716,0.05005716,0.99874635,-26.186862,14.958997)" />
  </g>
</svg>
