<svg xmlns="http://www.w3.org/2000/svg" xmlns:xlink="http://www.w3.org/1999/xlink" version="1.1" id="Layer_1" x="0px" y="0px" width="100px" height="80.673px" viewBox="0 0 100 80.673" enable-background="new 0 0 100 80.673" xml:space="preserve">
<path d="M50.235,35.062c5.556,0,11.462-1.786,11.462-5.096v-6.247c0-0.207-0.023-0.407-0.068-0.603  c-0.09-0.389-0.264-0.755-0.514-1.096c-0.125-0.171-0.268-0.334-0.428-0.493c-0.115-0.113-0.238-0.222-0.369-0.33  c-0.051-0.041-0.107-0.079-0.158-0.118c-0.084-0.064-0.168-0.128-0.258-0.189c-0.072-0.049-0.148-0.096-0.223-0.144  c-0.076-0.048-0.152-0.096-0.232-0.143c-0.09-0.053-0.186-0.104-0.279-0.154c-0.068-0.037-0.139-0.074-0.209-0.11  c-0.109-0.055-0.221-0.108-0.334-0.16c-0.061-0.028-0.123-0.055-0.184-0.082c-0.129-0.056-0.26-0.111-0.393-0.164  c-0.051-0.02-0.1-0.038-0.148-0.058c-0.148-0.056-0.299-0.112-0.453-0.165c-0.035-0.012-0.07-0.023-0.104-0.035  c-0.17-0.057-0.344-0.112-0.52-0.165c-1.09-0.324-2.293-0.562-3.537-0.709c-0.504-0.059-1.009-0.104-1.52-0.134  c-0.001,0-0.001,0-0.001,0c-0.51-0.03-1.021-0.045-1.53-0.045h-0.001l0,0c-4.861,0-9.99,1.368-11.196,3.928  c-0.172,0.365-0.264,0.755-0.264,1.169v0.601v2.076v3.57C38.774,33.276,44.679,35.062,50.235,35.062z M59.754,29.966  c0,1.285-3.707,3.152-9.517,3.152v-4.303c3.593-0.001,7.324-0.752,9.517-2.176V29.966z M40.76,23.472  c0.025-0.075,0.064-0.152,0.111-0.229c0.017-0.027,0.04-0.054,0.059-0.081c0.036-0.051,0.072-0.102,0.117-0.153  c0.029-0.033,0.064-0.067,0.098-0.1c0.043-0.045,0.089-0.09,0.141-0.135c0.042-0.038,0.089-0.075,0.137-0.112  c0.05-0.04,0.102-0.08,0.157-0.12c0.058-0.042,0.119-0.083,0.183-0.125c0.053-0.034,0.107-0.068,0.164-0.103  c0.074-0.045,0.152-0.091,0.234-0.136c0.051-0.028,0.104-0.054,0.156-0.082c0.098-0.05,0.195-0.1,0.301-0.148  c0.037-0.018,0.076-0.034,0.114-0.051c1.052-0.473,2.485-0.881,4.229-1.117c0.006-0.001,0.012-0.002,0.018-0.002  c0.25-0.034,0.506-0.063,0.769-0.089c0.011-0.001,0.021-0.002,0.03-0.003c0.264-0.026,0.533-0.048,0.809-0.066  c0.002,0,0.002,0,0.003,0c0.528-0.034,1.075-0.055,1.646-0.055c0.6,0,1.178,0.02,1.73,0.058c0.925,0.062,1.781,0.174,2.562,0.32  c0.055,0.01,0.109,0.02,0.162,0.031c0.619,0.121,1.188,0.264,1.705,0.422c0.051,0.016,0.104,0.033,0.156,0.049  c0.25,0.08,0.49,0.163,0.715,0.25c0.002,0.001,0.006,0.002,0.01,0.004c0.215,0.084,0.414,0.172,0.604,0.262  c0.047,0.022,0.094,0.044,0.139,0.066c0.186,0.091,0.361,0.184,0.518,0.277c0.004,0.003,0.008,0.006,0.014,0.009  c0.152,0.091,0.285,0.184,0.408,0.276c0.033,0.025,0.066,0.049,0.098,0.074c0.119,0.096,0.229,0.191,0.318,0.287  c0.25,0.266,0.381,0.527,0.381,0.768c0,1.286-3.709,3.153-9.518,3.153c-0.43,0-0.843-0.013-1.249-0.033  c-0.121-0.005-0.239-0.014-0.358-0.021c-0.29-0.018-0.575-0.041-0.853-0.067c-0.115-0.012-0.229-0.022-0.342-0.035  c-0.325-0.037-0.643-0.08-0.947-0.127c-0.041-0.007-0.085-0.012-0.125-0.018c-0.359-0.059-0.7-0.126-1.029-0.199  c-0.047-0.01-0.092-0.022-0.139-0.033c-0.282-0.065-0.553-0.134-0.809-0.208c-0.051-0.015-0.103-0.029-0.152-0.044  c-1.377-0.408-2.389-0.925-2.963-1.44c-0.022-0.02-0.044-0.04-0.064-0.06c-0.051-0.049-0.102-0.098-0.146-0.146  c-0.058-0.064-0.11-0.129-0.153-0.193c-0.02-0.028-0.033-0.056-0.049-0.083c-0.029-0.052-0.056-0.104-0.076-0.155  c-0.01-0.024-0.02-0.048-0.027-0.072c-0.021-0.074-0.038-0.147-0.038-0.217C40.717,23.639,40.732,23.556,40.76,23.472z"/>
<path d="M99.961,21.099c-0.008-0.027-0.02-0.053-0.031-0.079c-0.021-0.057-0.047-0.112-0.078-0.163  c-0.018-0.028-0.035-0.053-0.055-0.079c-0.035-0.047-0.078-0.09-0.123-0.131c-0.021-0.021-0.041-0.041-0.064-0.059  c-0.01-0.007-0.018-0.017-0.027-0.024c-0.062-0.044-0.131-0.078-0.201-0.105c-0.002,0-0.002-0.002-0.004-0.002l-0.002-0.001  c-0.002,0-0.002,0-0.004-0.001l-13.277-5.083v-0.846c0-0.207-0.023-0.408-0.066-0.603c-0.09-0.39-0.266-0.755-0.516-1.097  c-0.123-0.17-0.268-0.334-0.428-0.493c-0.113-0.113-0.238-0.222-0.369-0.33c-0.049-0.041-0.105-0.079-0.158-0.118  c-0.084-0.064-0.168-0.128-0.258-0.189c-0.072-0.049-0.148-0.096-0.223-0.144c-0.076-0.048-0.15-0.096-0.232-0.143  c-0.09-0.053-0.184-0.104-0.279-0.155c-0.068-0.037-0.137-0.074-0.209-0.11c-0.107-0.055-0.221-0.108-0.334-0.16  c-0.061-0.028-0.123-0.056-0.184-0.083c-0.129-0.056-0.258-0.111-0.393-0.164c-0.049-0.02-0.1-0.038-0.148-0.058  c-0.148-0.056-0.299-0.112-0.453-0.165c-0.033-0.012-0.068-0.023-0.104-0.035c-0.17-0.057-0.344-0.113-0.52-0.166  c-1.09-0.324-2.291-0.562-3.537-0.709c-0.502-0.059-1.01-0.104-1.52-0.134l0,0c-0.512-0.03-1.021-0.045-1.531-0.045l0,0h-0.002  c-1.154,0-2.326,0.08-3.455,0.232l-9.713-3.718V5.097c0-0.207-0.023-0.408-0.068-0.603c-0.09-0.39-0.264-0.755-0.514-1.096  c-0.125-0.171-0.268-0.334-0.428-0.493c-0.113-0.113-0.238-0.222-0.369-0.33c-0.051-0.041-0.107-0.079-0.158-0.118  c-0.084-0.064-0.168-0.128-0.258-0.189c-0.072-0.049-0.148-0.096-0.223-0.144c-0.076-0.048-0.152-0.096-0.232-0.143  c-0.09-0.053-0.184-0.104-0.279-0.154c-0.068-0.037-0.139-0.074-0.209-0.11c-0.109-0.055-0.221-0.108-0.334-0.16  c-0.061-0.028-0.123-0.056-0.184-0.082c-0.129-0.056-0.26-0.111-0.393-0.164c-0.049-0.02-0.1-0.038-0.148-0.058  c-0.148-0.056-0.299-0.112-0.453-0.165c-0.035-0.012-0.068-0.023-0.104-0.035c-0.17-0.057-0.344-0.112-0.52-0.165  c-1.09-0.324-2.293-0.562-3.537-0.709c-0.504-0.059-1.009-0.104-1.52-0.134c-0.001,0-0.001,0-0.001,0C51.022,0.015,50.51,0,50.001,0  H50l0,0c-4.861,0-9.99,1.368-11.196,3.928c-0.172,0.365-0.265,0.755-0.265,1.169v0.601v0l-9.787,3.688  c0.058,0.007,0.114,0.017,0.171,0.025c-0.09-0.012-0.179-0.027-0.27-0.038c-0.502-0.059-1.009-0.104-1.52-0.134  c-0.001,0-0.001,0-0.001,0c-0.51-0.03-1.021-0.045-1.53-0.045h0h-0.001c-4.86,0-9.99,1.368-11.196,3.927  c-0.172,0.366-0.264,0.756-0.264,1.169v0.601l-13.511,5.09c-0.074,0.027-0.145,0.064-0.211,0.109  c-0.01,0.007-0.017,0.016-0.026,0.023c-0.024,0.018-0.043,0.038-0.065,0.059c-0.045,0.04-0.087,0.083-0.123,0.13  c-0.02,0.025-0.038,0.051-0.055,0.078c-0.032,0.052-0.057,0.105-0.079,0.162c-0.011,0.026-0.023,0.053-0.031,0.081  c-0.024,0.082-0.039,0.167-0.04,0.255c0,0.004-0.001,0.007-0.001,0.01c0,0.001,0,0.001,0,0.001s0,0,0,0.001v39.953  c0,0.402,0.249,0.764,0.624,0.907l49.263,18.857c0.008,0.004,0.018,0.002,0.027,0.006c0.104,0.035,0.211,0.059,0.32,0.059  c0.107,0,0.213-0.021,0.316-0.057c0.008-0.004,0.018-0.002,0.025-0.006l48.794-18.386C99.75,62.083,100,61.721,100,61.317V21.363  C100,21.272,99.984,21.184,99.961,21.099z M71.377,11.586c0.25-0.033,0.506-0.063,0.768-0.089c0.012-0.001,0.021-0.002,0.031-0.003  c0.264-0.026,0.533-0.048,0.809-0.065c0,0,0,0,0.002,0c0.529-0.034,1.076-0.056,1.646-0.056c0.6,0,1.178,0.02,1.73,0.058  c0.926,0.062,1.779,0.174,2.562,0.32c0.055,0.01,0.107,0.02,0.16,0.031c0.619,0.121,1.188,0.264,1.705,0.422  c0.053,0.016,0.104,0.033,0.156,0.049c0.25,0.081,0.492,0.164,0.715,0.25c0.004,0.001,0.006,0.002,0.01,0.004  c0.215,0.084,0.414,0.173,0.605,0.262c0.047,0.022,0.092,0.044,0.137,0.066c0.186,0.091,0.361,0.183,0.52,0.277  c0.004,0.003,0.008,0.006,0.012,0.009c0.152,0.091,0.285,0.184,0.41,0.276c0.033,0.025,0.064,0.049,0.096,0.074  c0.119,0.096,0.23,0.191,0.32,0.287c0.248,0.266,0.379,0.527,0.379,0.769c0,1.286-3.707,3.153-9.518,3.153  c-0.43,0-0.844-0.013-1.248-0.033c-0.123-0.005-0.24-0.014-0.359-0.021c-0.291-0.018-0.576-0.041-0.854-0.067  c-0.113-0.011-0.229-0.022-0.34-0.035c-0.326-0.037-0.643-0.08-0.949-0.128c-0.039-0.007-0.084-0.011-0.123-0.018  c-0.359-0.059-0.701-0.126-1.029-0.199c-0.047-0.01-0.094-0.022-0.141-0.033c-0.281-0.065-0.551-0.135-0.809-0.208  c-0.051-0.015-0.102-0.03-0.15-0.044c-1.377-0.408-2.391-0.925-2.965-1.44c-0.021-0.02-0.043-0.04-0.062-0.06  c-0.053-0.049-0.104-0.098-0.146-0.146c-0.057-0.064-0.109-0.129-0.152-0.193c-0.02-0.028-0.033-0.056-0.049-0.083  c-0.029-0.052-0.057-0.104-0.076-0.155c-0.012-0.024-0.02-0.048-0.027-0.072c-0.021-0.074-0.037-0.146-0.037-0.217  c0-0.081,0.016-0.163,0.043-0.247c0.025-0.075,0.064-0.152,0.111-0.229c0.016-0.027,0.039-0.054,0.059-0.081  c0.035-0.051,0.072-0.102,0.117-0.153c0.029-0.034,0.064-0.067,0.098-0.101c0.043-0.045,0.09-0.09,0.141-0.135  c0.043-0.037,0.09-0.075,0.137-0.112c0.051-0.04,0.102-0.08,0.156-0.12c0.059-0.042,0.119-0.083,0.184-0.125  c0.051-0.034,0.107-0.068,0.164-0.103c0.074-0.045,0.152-0.091,0.234-0.136c0.051-0.027,0.104-0.054,0.156-0.082  c0.096-0.05,0.193-0.1,0.301-0.149c0.037-0.017,0.076-0.034,0.115-0.051c1.051-0.473,2.484-0.881,4.229-1.116  C71.365,11.587,71.371,11.586,71.377,11.586z M84.15,17.446v3.327c0,1.285-3.707,3.153-9.516,3.153v-4.303  C78.227,19.621,81.957,18.87,84.15,17.446z M40.526,4.85c0.025-0.075,0.064-0.152,0.111-0.229c0.017-0.027,0.04-0.054,0.059-0.081  c0.036-0.051,0.072-0.102,0.117-0.153c0.029-0.033,0.064-0.067,0.097-0.1c0.044-0.045,0.09-0.09,0.141-0.135  c0.043-0.038,0.09-0.075,0.137-0.112C41.239,4,41.29,3.96,41.345,3.92c0.058-0.042,0.119-0.083,0.183-0.125  c0.053-0.034,0.107-0.068,0.164-0.102c0.075-0.045,0.152-0.091,0.234-0.136c0.051-0.027,0.104-0.054,0.156-0.082  c0.098-0.05,0.195-0.1,0.301-0.148c0.037-0.018,0.076-0.034,0.115-0.051c1.051-0.473,2.484-0.881,4.229-1.117  c0.006-0.001,0.012-0.002,0.018-0.002c0.25-0.034,0.506-0.063,0.769-0.089c0.011-0.001,0.021-0.002,0.03-0.003  c0.264-0.026,0.533-0.048,0.809-0.066c0.002,0,0.002,0,0.003,0C48.883,1.965,49.43,1.944,50,1.944c0.6,0,1.178,0.02,1.73,0.057  c0.925,0.062,1.781,0.174,2.562,0.32c0.055,0.01,0.109,0.02,0.162,0.031c0.619,0.12,1.188,0.264,1.705,0.422  c0.051,0.016,0.104,0.033,0.156,0.049c0.25,0.08,0.49,0.163,0.715,0.25c0.002,0.001,0.006,0.003,0.01,0.004  c0.215,0.084,0.414,0.172,0.605,0.262c0.047,0.022,0.092,0.044,0.137,0.066c0.186,0.091,0.361,0.184,0.518,0.277  c0.004,0.003,0.008,0.006,0.014,0.009c0.152,0.091,0.285,0.184,0.408,0.276c0.033,0.025,0.066,0.049,0.098,0.074  c0.119,0.096,0.23,0.191,0.318,0.287c0.25,0.266,0.381,0.527,0.381,0.768c0,1.286-3.707,3.153-9.518,3.153  c-0.43,0-0.843-0.013-1.249-0.033c-0.121-0.005-0.239-0.014-0.358-0.021c-0.29-0.018-0.575-0.041-0.853-0.067  c-0.115-0.012-0.229-0.022-0.342-0.035c-0.325-0.037-0.642-0.08-0.947-0.128c-0.041-0.006-0.084-0.011-0.125-0.018  c-0.359-0.059-0.7-0.126-1.029-0.199c-0.047-0.01-0.092-0.022-0.139-0.033c-0.282-0.065-0.553-0.134-0.809-0.208  c-0.051-0.015-0.102-0.029-0.152-0.044c-1.377-0.408-2.389-0.925-2.963-1.44c-0.022-0.02-0.043-0.04-0.063-0.06  c-0.051-0.049-0.103-0.098-0.146-0.146c-0.058-0.064-0.11-0.129-0.153-0.193c-0.019-0.028-0.033-0.056-0.049-0.083  c-0.029-0.052-0.056-0.104-0.076-0.155c-0.01-0.024-0.02-0.048-0.027-0.072c-0.021-0.074-0.038-0.147-0.038-0.217  C40.483,5.017,40.498,4.934,40.526,4.85z M59.52,8.017v3.327c0,1.285-3.707,3.152-9.517,3.152v-4.303  C53.596,10.192,57.326,9.441,59.52,8.017z M29.819,9.542c-0.053-0.009-0.104-0.02-0.156-0.028  C29.716,9.523,29.767,9.534,29.819,9.542z M30.611,9.69c-0.007-0.002-0.014-0.004-0.021-0.005  C30.597,9.686,30.604,9.688,30.611,9.69z M16.129,14.043c0.025-0.075,0.064-0.152,0.111-0.229c0.017-0.026,0.04-0.053,0.059-0.08  c0.036-0.051,0.072-0.102,0.117-0.153c0.029-0.033,0.064-0.067,0.097-0.101c0.044-0.044,0.089-0.089,0.141-0.134  c0.042-0.038,0.089-0.075,0.137-0.112c0.05-0.041,0.102-0.08,0.157-0.12c0.058-0.042,0.119-0.083,0.183-0.125  c0.052-0.034,0.108-0.068,0.164-0.102c0.075-0.046,0.152-0.091,0.235-0.136c0.05-0.027,0.104-0.054,0.156-0.082  c0.097-0.05,0.195-0.1,0.301-0.148c0.037-0.018,0.076-0.034,0.114-0.051c1.052-0.474,2.485-0.881,4.229-1.117  c0.006-0.001,0.012-0.002,0.018-0.002c0.25-0.034,0.506-0.064,0.769-0.089c0.011-0.001,0.021-0.002,0.031-0.003  c0.264-0.026,0.533-0.048,0.808-0.065c0.001,0,0.001,0,0.003,0c0.529-0.034,1.075-0.056,1.646-0.056c0.6,0,1.177,0.02,1.73,0.058  c0.926,0.062,1.781,0.174,2.562,0.32c0.055,0.01,0.108,0.021,0.162,0.031c0.619,0.12,1.188,0.264,1.704,0.422  c0.052,0.016,0.104,0.033,0.157,0.049c0.25,0.08,0.491,0.163,0.715,0.25c0.003,0.001,0.005,0.003,0.009,0.004  c0.216,0.084,0.415,0.173,0.605,0.262c0.046,0.022,0.092,0.044,0.138,0.066c0.185,0.091,0.361,0.184,0.518,0.277  c0.004,0.003,0.008,0.006,0.013,0.009c0.151,0.091,0.285,0.183,0.409,0.276c0.033,0.025,0.065,0.049,0.096,0.074  c0.119,0.096,0.23,0.191,0.32,0.286c0.249,0.266,0.38,0.528,0.38,0.769c0,1.286-3.708,3.153-9.518,3.153  c-0.43,0-0.843-0.013-1.249-0.033c-0.122-0.005-0.239-0.014-0.358-0.021c-0.291-0.018-0.576-0.041-0.853-0.068  c-0.114-0.011-0.229-0.022-0.341-0.035c-0.325-0.037-0.642-0.08-0.948-0.128c-0.041-0.006-0.084-0.011-0.125-0.018  c-0.359-0.059-0.7-0.125-1.029-0.199c-0.048-0.01-0.092-0.022-0.139-0.033c-0.282-0.065-0.552-0.134-0.809-0.208  c-0.051-0.015-0.102-0.029-0.151-0.044c-1.377-0.408-2.39-0.925-2.964-1.44c-0.022-0.02-0.043-0.04-0.063-0.06  c-0.052-0.049-0.103-0.098-0.146-0.147c-0.058-0.064-0.11-0.129-0.153-0.192c-0.02-0.028-0.033-0.056-0.049-0.084  c-0.029-0.052-0.056-0.104-0.076-0.155c-0.01-0.024-0.02-0.048-0.027-0.072c-0.021-0.074-0.038-0.146-0.038-0.217  C16.086,14.21,16.101,14.127,16.129,14.043z M35.123,17.21v3.327c0,1.285-3.707,3.152-9.517,3.152v-4.303  C29.199,19.386,32.928,18.635,35.123,17.21z M14.143,16.966L14.143,16.966v3.571c0,3.31,5.905,5.096,11.46,5.096  c5.557,0,11.462-1.787,11.462-5.096V14.29c0-0.207-0.023-0.408-0.067-0.603c-0.09-0.39-0.265-0.755-0.514-1.096  c-0.125-0.171-0.268-0.335-0.428-0.494c-0.114-0.113-0.238-0.222-0.37-0.329c-0.049-0.041-0.106-0.079-0.158-0.119  c-0.084-0.064-0.167-0.127-0.257-0.188c-0.072-0.05-0.148-0.097-0.224-0.144c-0.076-0.048-0.151-0.096-0.231-0.143  c-0.09-0.053-0.185-0.104-0.28-0.155c-0.068-0.037-0.138-0.073-0.209-0.109c-0.108-0.055-0.221-0.108-0.334-0.16  c-0.06-0.028-0.122-0.056-0.184-0.083c-0.128-0.056-0.258-0.111-0.392-0.164c-0.049-0.02-0.099-0.039-0.148-0.058  c-0.149-0.056-0.299-0.112-0.453-0.165c-0.035-0.012-0.07-0.022-0.104-0.035c-0.13-0.043-0.264-0.085-0.398-0.127l6.227-2.346v3.57  c0,3.31,5.905,5.096,11.46,5.096c5.556,0,11.462-1.787,11.462-5.096V8.022l6.254,2.394c-2.064,0.663-3.672,1.649-4.279,2.94  c-0.174,0.365-0.266,0.755-0.266,1.169v0.6v2.076v3.57c0,3.31,5.904,5.096,11.459,5.096c5.559,0,11.463-1.786,11.463-5.096v-3.321  l10.199,3.904L63.371,33.761l-13.134,4.949L29.051,30.6L3.708,20.898L14.143,16.966z M98.057,60.645L51.206,78.298V40.419  l46.851-17.652V60.645z"/>
</svg>