<svg xmlns="http://www.w3.org/2000/svg" viewBox="0 0 1024 1024" role="img" aria-label="React on Rails — Reduced tilt + full triangle + red glint">
<title>React on Rails — Reduced tilt + full triangle + red glint</title>
<rect x="64" y="64" width="896" height="896" rx="192" fill="#0B1118" stroke="#26313D" stroke-width="12"/>
<g>
<g fill="none" stroke="#00D8FF" stroke-width="45" stroke-linecap="round" stroke-linejoin="round">
  <ellipse cx="512" cy="512" rx="318" ry="118"/>
  <ellipse cx="512" cy="512" rx="318" ry="118" transform="rotate(60 512 512)"/>
  <ellipse cx="512" cy="512" rx="318" ry="118" transform="rotate(-60 512 512)"/>
</g>
<g transform="translate(512 505) rotate(-3) scale(1.05)">

<path d="M-180 -58 L-118 -130 L118 -130 L180 -58 L94 76 L0 152 L-94 76 Z" fill="#EC221E"/>
<path d="M-180 -58 L-118 -130 L-58 -18 Z" fill="#FF3B30"/>
<path d="M-118 -130 L118 -130 L58 -18 L-58 -18 Z" fill="#F72B23"/>
<path d="M118 -130 L180 -58 L58 -18 Z" fill="#A81510" opacity="0.92"/>
<path d="M-180 -58 L-58 -18 L-94 76 Z" fill="#D7201B"/>
<path d="M58 -18 L180 -58 L94 76 Z" fill="#75100C" opacity="0.76"/>
<path d="M-94 76 L-58 -18 L0 152 Z" fill="#E3231D"/>
<path d="M58 -18 L94 76 L0 152 Z" fill="#B81914" opacity="0.88"/>
<path d="M-94 76 L94 76 L0 152 Z" fill="#C81F1A" opacity="0.88"/>
<path d="M-72 -28 C-31 -58 43 -62 91 -42 C52 -38 14 -20 -24 7 C-48 24 -65 8 -72 -28 Z" fill="#FF6252" opacity="0.62"/>
<path d="M-118 -130 L-58 -18 L58 -18 L118 -130" fill="none" stroke="#FF7A70" stroke-width="6" stroke-linecap="round" stroke-linejoin="round" opacity="0.16"/>
<path d="M-94 76 L0 152 L94 76" fill="none" stroke="#FF7A70" stroke-width="5" stroke-linecap="round" stroke-linejoin="round" opacity="0.18"/>

</g>
</g>

</svg>
