<svg xmlns="http://www.w3.org/2000/svg" viewBox="0 0 1024 1024" role="img" aria-label="React on Rails Reduced tilt + full triangle + angular glint transparent mark">
<title>React on Rails Reduced tilt + full triangle + angular glint transparent mark</title>
<g><g fill="none" stroke="#00D8FF" stroke-width="45" stroke-linecap="round" stroke-linejoin="round">
  <ellipse cx="512" cy="512" rx="318" ry="118"/>
  <ellipse cx="512" cy="512" rx="318" ry="118" transform="rotate(60 512 512)"/>
  <ellipse cx="512" cy="512" rx="318" ry="118" transform="rotate(-60 512 512)"/>
</g>
<g transform="translate(512 506) rotate(-3) scale(1.04)">
<path d="M-180 -60 L-116 -132 L116 -132 L180 -60 L96 72 L0 158 L-96 72 Z" fill="#EC221E"/>
<path d="M-180 -60 L-116 -132 L-58 -18 Z" fill="#FF3B30"/>
<path d="M-116 -132 L116 -132 L58 -18 L-58 -18 Z" fill="#F72B23"/>
<path d="M116 -132 L180 -60 L58 -18 Z" fill="#A81510" opacity="0.86"/>
<path d="M-180 -60 L-58 -18 L-96 72 Z" fill="#D7201B"/>
<path d="M58 -18 L180 -60 L96 72 Z" fill="#75100C" opacity="0.62"/>
<path d="M-96 72 L-58 -18 L0 158 Z" fill="#E3231D"/>
<path d="M58 -18 L96 72 L0 158 Z" fill="#B81914" opacity="0.82"/>
<path d="M-96 72 L96 72 L0 158 Z" fill="#C81F1A" opacity="0.86"/>
<path d="M-70 -28 L-10 -50 L86 -44 L34 -26 L-35 -8 Z" fill="#FF5A45" opacity="0.70"/>
<path d="M-116 -132 L-58 -18 L58 -18 L116 -132" fill="none" stroke="#FF6E61" stroke-width="5" stroke-linecap="round" stroke-linejoin="round" opacity="0.10"/>
<path d="M-96 72 L0 158 L96 72" fill="none" stroke="#FF6E61" stroke-width="5" stroke-linecap="round" stroke-linejoin="round" opacity="0.11"/>
</g></g>
</svg>
