<svg xmlns="http://www.w3.org/2000/svg" xmlns:xlink="http://www.w3.org/1999/xlink" version="1.1" id="Layer_1" x="0px" y="0px" width="100px" height="100px" viewBox="0 0 100 100" enable-background="new 0 0 100 100" xml:space="preserve">
<g id="Captions">
	<rect x="-192" width="185" height="99"/>
	<rect y="-36" width="100" height="30"/>
	<text transform="matrix(1 0 0 1 66 -19.5)" fill="#000000" font-family="'Helvetica'" font-size="2.4">http://thenounproject.com</text>
	<text transform="matrix(1 0 0 1 7.1655 -24.5)" fill="#000000" font-family="'Helvetica-Bold'" font-size="6.1578">The Noun Project</text>
	<text transform="matrix(1 0 0 1 8.2856 -19.7002)" fill="#000000" font-family="'Helvetica-Bold'" font-size="4">Icon Template</text>
	<text transform="matrix(1 0 0 1 -178.5005 10.5)" fill="#000000" font-family="'Helvetica-Bold'" font-size="6.1578">Reminders</text>
	<line fill="#000000" stroke="#FFFFFF" stroke-miterlimit="10" x1="8" y1="-14.5" x2="18" y2="-14.5"/>
	<line fill="#000000" stroke="#FFFFFF" stroke-miterlimit="10" x1="-179" y1="16.5" x2="-162" y2="16.5"/>
	<g>
		<g>
			<g>
				<rect x="-170.802" y="31.318" fill="#000000" width="8.721" height="8.642"/>
				<path fill="#000000" d="M-164.455,42.312h4.747v-4.703h-4.747V42.312z M-159.266,42.749h-5.63V37.17h5.63V42.749      L-159.266,42.749z M-166.221,44.062h8.279v-8.203h-8.279V44.062L-166.221,44.062z M-157.5,44.5h-9.163v-9.079h9.163V44.5      L-157.5,44.5z"/>
				<polygon fill="#000000" points="-166.149,44.133 -166.292,43.991 -158.013,35.787 -157.871,35.929     "/>
			</g>
		</g>
	</g>
	<rect x="-179" y="58" fill="none" width="35" height="32.5"/>
	<text transform="matrix(1 0 0 1 -179.0005 60.1572)" fill="#000000" font-family="'Helvetica-Bold'" font-size="3">Strokes</text>
	<text transform="matrix(1 0 0 1 -179.0005 65.1572)" fill="#000000" font-family="'Helvetica'" font-size="2.4">Try to keep strokes at 4px</text>
	<text transform="matrix(1 0 0 1 -179.0005 70.1572)" fill="#000000" font-family="'Helvetica'" font-size="2.4">Minimum stroke weight is 2px</text>
	<text transform="matrix(1 0 0 1 -179.0005 74.6572)" fill="#000000" font-family="'Helvetica'" font-size="2.4">For thicker strokes use even </text>
	<text transform="matrix(1 0 0 1 -179.0005 77.6572)" fill="#000000" font-family="'Helvetica'" font-size="2.4">numbers: 6px, 8px etc.</text>
	<text transform="matrix(1 0 0 1 -179.0005 82.1572)" fill="#000000" font-family="'Helvetica-Bold'" font-size="2.4">Remember to expand strokes </text>
	<text transform="matrix(1 0 0 1 -179.0005 85.1572)" fill="#000000" font-family="'Helvetica-Bold'" font-size="2.4">before saving as an SVG </text>
	<rect x="-136.5" y="58" fill="none" width="35" height="32.5"/>
	<text transform="matrix(1 0 0 1 -136.5005 60.1572)" fill="#000000" font-family="'Helvetica-Bold'" font-size="3">Size</text>
	<text transform="matrix(1 0 0 1 -136.5005 65.1572)" fill="#000000" font-family="'Helvetica'" font-size="2.4">Cannot be wider or taller than </text>
	<text transform="matrix(1 0 0 1 -136.5005 68.6572)" fill="#000000" font-family="'Helvetica'" font-size="2.4">100px (artboard size)</text>
	<text transform="matrix(1 0 0 1 -136.5005 73.6572)" fill="#000000" font-family="'Helvetica'" font-size="2.4">Scale your icon to fill as much of </text>
	<text transform="matrix(1 0 0 1 -136.5005 76.6572)" fill="#000000" font-family="'Helvetica'" font-size="2.4">the artboard as possible</text>
	<rect x="-94" y="58" fill="none" width="35" height="32.5"/>
	<text transform="matrix(1 0 0 1 -94.0005 60.1572)" fill="#000000" font-family="'Helvetica-Bold'" font-size="3">Ungroup</text>
	<text transform="matrix(1 0 0 1 -94.0005 65.1572)" fill="#000000" font-family="'Helvetica'" font-size="2.4">If your design has more than one </text>
	<text transform="matrix(1 0 0 1 -94.0005 68.1572)" fill="#000000" font-family="'Helvetica'" font-size="2.4">shape, make sure to ungroup</text>
	<rect x="-50" y="58" fill="none" width="35" height="32.5"/>
	<text transform="matrix(1 0 0 1 -50.0005 60.1572)" fill="#000000" font-family="'Helvetica-Bold'" font-size="3">Save as</text>
	<text transform="matrix(1 0 0 1 -50.0005 65.1572)" fill="#000000" font-family="'Helvetica'" font-size="2.4">Save as .SVG and make sure </text>
	<text transform="matrix(1 0 0 1 -50.0005 68.1572)" fill="#000000" font-family="'Helvetica'" font-size="2.4">&#8220;Use Artboards&#8221; is checked</text>
	<text transform="matrix(1.0074 0 0 1 -125.5415 30.5938)" fill="#000000" font-family="'Helvetica'" font-size="2.5731">100px</text>
	<text transform="matrix(1.0074 0 0 1 -41.0005 39)" fill="#000000" font-family="'Helvetica-Bold'" font-size="5.1462">.SVG</text>
	<rect x="-126.514" y="34.815" fill="#000000" width="10.261" height="10.185"/>
	<rect x="-126.477" y="31.766" fill="#000000" width="0.522" height="2.337"/>
	<rect x="-116.812" y="31.766" fill="#000000" width="0.523" height="2.337"/>
	<rect x="-127" y="32.337" fill="#000000" width="11.233" height="0.572"/>
	<g>
		<rect x="-83.805" y="33.844" fill="#000000" width="10.305" height="10.156"/>
		<rect x="-76.809" y="28.707" fill="#000000" width="3.308" height="3.261"/>
	</g>
	<rect x="-178.5" y="22.5" fill="#000000" stroke="#FFFFFF" stroke-miterlimit="10" width="30" height="30"/>
	<rect x="-136.5" y="22.5" fill="#000000" stroke="#FFFFFF" stroke-miterlimit="10" width="30" height="30"/>
	<rect x="-93.5" y="22.5" fill="#000000" stroke="#FFFFFF" stroke-miterlimit="10" width="30" height="30"/>
	<rect x="-49.5" y="22.5" fill="#000000" stroke="#FFFFFF" stroke-miterlimit="10" width="30" height="30"/>
</g>
<g id="Your_Icon">
	<path fill="#000000" d="M98.385,65.208L80.534,22.112c-1.071-2.904-3.872-4.854-6.971-4.854h-1.181l4.299,12.256   c-0.898,0.583-1.969,0.924-3.118,0.924H26.436c-1.147,0-2.216-0.341-3.116-0.924l4.299-12.256h-1.183   c-3.095,0-5.896,1.95-6.956,4.822L1.616,65.208C0.559,66.991,0,69.035,0,71.117c0,6.411,5.214,11.625,11.623,11.625h76.755   c6.409,0,11.622-5.214,11.622-11.625C100,69.035,99.443,66.993,98.385,65.208z M88.378,81.064H11.623   c-5.486,0-9.947-4.46-9.947-9.947c0-1.8,0.488-3.565,1.409-5.102l0.001-0.004c1.788-2.982,5.059-4.84,8.536-4.84h0.594   l10.535-30.039c1.087,0.623,2.344,0.982,3.684,0.982h47.127c1.341,0,2.6-0.359,3.684-0.982l10.537,30.039h0.594   c3.529,0,6.722,1.812,8.536,4.842l0,0v0.002c0.922,1.536,1.409,3.302,1.409,5.102C98.323,76.604,93.861,81.064,88.378,81.064z"/>
	<path fill="#000000" d="M66.065,34.89c-4.783,0-8.31,3.055-7.871,6.823c0.342,2.97,3.398,5.488,7.43,6.425l0.912,4.942   l-7.642,0.007c-1.7-2.646-5.603-4.545-9.986-4.54c-4.385,0.004-8.24,1.908-9.878,4.559l-14.675,0.014l-2.181,9.513   c-4.729,0.946-8.72,3.473-9.605,6.447c-1.125,3.776,3.737,6.831,10.863,6.818c7.125-0.012,13.181-3.081,13.526-6.854   c0.271-2.971-2.737-5.49-7.099-6.423l0.796-4.954l7.984-0.01c1.324,2.651,5.432,4.547,10.431,4.541   c4.998-0.008,9.058-1.912,10.321-4.562l15.33-0.018l-2.406-9.486c3.616-0.941,5.571-3.46,4.613-6.427   C75.711,37.941,70.85,34.89,66.065,34.89z M31.539,69.051c-0.288,2.096-3.66,3.803-7.516,3.81   c-3.856,0.006-6.564-1.691-6.036-3.789c0.529-2.094,3.898-3.803,7.515-3.809C29.117,65.259,31.827,66.96,31.539,69.051z    M49.033,59.164C45.61,59.168,42.904,57.47,43,55.376c0.094-2.091,2.76-3.794,5.942-3.798c3.183-0.002,5.892,1.697,6.035,3.788   C55.123,57.454,52.455,59.16,49.033,59.164z M68.391,45.5c-2.991,0.002-5.697-1.699-6.033-3.788   c-0.34-2.091,1.622-3.789,4.371-3.789c2.75,0,5.459,1.696,6.035,3.785C73.343,43.796,71.38,45.497,68.391,45.5z"/>
</g>
</svg>