<svg xmlns="http://www.w3.org/2000/svg" viewBox="0 0 900 500" font-family="system-ui, -apple-system, 'Segoe UI', sans-serif">
  <title>Top-Down Migration Strategy</title>
  <desc>Animated three-phase diagram showing RSC migration strategy: Phase 1 marks the root as 'use client' (100% client bundle), Phase 2 pushes the boundary down to child components (~40% client), Phase 3 splits mixed components into server+client leaves (~15% client). Each phase reveals progressively with staggered animation.</desc>
  <defs>
    <linearGradient id="clientGrad" x1="0%" y1="0%" x2="100%" y2="100%">
      <stop offset="0%" stop-color="#F97316"/><stop offset="100%" stop-color="#EA580C"/>
    </linearGradient>
    <linearGradient id="serverGrad" x1="0%" y1="0%" x2="100%" y2="100%">
      <stop offset="0%" stop-color="#22C55E"/><stop offset="100%" stop-color="#16A34A"/>
    </linearGradient>
    <filter id="shadow">
      <feDropShadow dx="1" dy="2" stdDeviation="3" flood-opacity="0.1"/>
    </filter>
    <style>
      .bg { fill: #F8FAFC; }
      .title { fill: #0F172A; }
      .subtitle { fill: #64748B; }
      .card { fill: white; stroke: #E2E8F0; }
      .phase-label { fill: #94A3B8; }
      .phase-title { fill: #334155; }
      .phase-desc { fill: #64748B; }
      .tree-line { stroke: #94A3B8; }
      .client-node { fill: #FFF7ED; stroke: #F97316; }
      .client-text { fill: #9A3412; }
      .server-node { fill: #ECFDF5; stroke: #22C55E; }
      .server-text { fill: #166534; }
      .badge-uc { fill: #FEE2E2; stroke: #EF4444; }
      .badge-text { fill: #991B1B; }
      .bar-bg { fill: #E2E8F0; }
      .bar-client { fill: #F97316; }
      .bar-server { fill: #22C55E; }
      .bar-label { fill: #9A3412; }
      .arrow-body { fill: #94A3B8; }
      .legend-box { fill: #F1F5F9; stroke: #E2E8F0; }
      .legend-text { fill: #334155; }

      @media (prefers-color-scheme: dark) {
        .bg { fill: #0F172A; }
        .title { fill: #F1F5F9; }
        .subtitle { fill: #94A3B8; }
        .card { fill: #1E293B; stroke: #334155; }
        .phase-label { fill: #64748B; }
        .phase-title { fill: #E2E8F0; }
        .phase-desc { fill: #94A3B8; }
        .tree-line { stroke: #64748B; }
        .client-node { fill: #431407; stroke: #F97316; }
        .client-text { fill: #FDBA74; }
        .server-node { fill: #052E16; stroke: #10B981; }
        .server-text { fill: #6EE7B7; }
        .badge-uc { fill: #450A0A; stroke: #F87171; }
        .badge-text { fill: #FCA5A5; }
        .bar-bg { fill: #334155; }
        .bar-label { fill: #FDBA74; }
        .arrow-body { fill: #64748B; }
        .legend-box { fill: #1E293B; stroke: #334155; }
        .legend-text { fill: #CBD5E1; }
      }

      .p1 { opacity: 0; animation: fadeP1 18s ease 0.3s infinite; }
      .p2 { opacity: 0; animation: fadeP2 18s ease 3.0s infinite; }
      .p3 { opacity: 0; animation: fadeP3 18s ease 5.8s infinite; }

      @keyframes fadeP1 {
        0% { opacity: 0; } 2% { opacity: 1; } 80% { opacity: 1; } 90% { opacity: 0; } 100% { opacity: 0; }
      }
      @keyframes fadeP2 {
        0% { opacity: 0; } 3% { opacity: 1; } 77% { opacity: 1; } 87% { opacity: 0; } 100% { opacity: 0; }
      }
      @keyframes fadeP3 {
        0% { opacity: 0; } 3% { opacity: 1; } 73% { opacity: 1; } 84% { opacity: 0; } 100% { opacity: 0; }
      }

      @media (prefers-reduced-motion: reduce) {
        * { animation: none !important; opacity: 1 !important; }
      }
    </style>
  </defs>

  <rect width="900" height="500" class="bg"/>
  <text x="450" y="28" text-anchor="middle" font-size="18" font-weight="700" class="title">Top-Down Migration Strategy</text>
  <text x="450" y="46" text-anchor="middle" font-size="11" class="subtitle">Three phases: mark root as client → push boundary down → split into server + client leaves</text>

  <!-- ============ PHASE 1: All Client ============ -->
  <g class="p1">
    <rect x="20" y="60" width="270" height="370" rx="12" class="card" stroke-width="1.5" filter="url(#shadow)"/>
    <text x="155" y="82" text-anchor="middle" font-size="11" font-weight="600" letter-spacing="1" class="phase-label">PHASE 1</text>
    <text x="155" y="100" text-anchor="middle" font-size="13" font-weight="600" class="phase-title">Mark Root as Client</text>
    <text x="155" y="116" text-anchor="middle" font-size="9" class="phase-desc">Everything stays client-side</text>

    <!-- Tree lines -->
    <g class="tree-line" stroke-width="1.5" fill="none">
      <line x1="155" y1="160" x2="155" y2="178"/>
      <line x1="155" y1="202" x2="155" y2="214"/>
      <line x1="155" y1="214" x2="95" y2="214"/>
      <line x1="155" y1="214" x2="215" y2="214"/>
      <line x1="95" y1="214" x2="95" y2="228"/>
      <line x1="215" y1="214" x2="215" y2="228"/>
      <line x1="95" y1="252" x2="95" y2="266"/>
      <line x1="95" y1="266" x2="60" y2="266"/>
      <line x1="95" y1="266" x2="130" y2="266"/>
      <line x1="60" y1="266" x2="60" y2="280"/>
      <line x1="130" y1="266" x2="130" y2="280"/>
    </g>

    <!-- App (client) -->
    <rect x="105" y="136" width="100" height="24" rx="8" class="client-node" stroke-width="2"/>
    <text x="155" y="152" text-anchor="middle" font-size="10" font-weight="600" class="client-text">App</text>
    <rect x="130" y="162" width="50" height="14" rx="7" class="badge-uc" stroke-width="1"/>
    <text x="155" y="173" text-anchor="middle" font-size="7" font-weight="700" class="badge-text">'use client'</text>

    <rect x="105" y="178" width="100" height="24" rx="8" class="client-node" stroke-width="1.5"/>
    <text x="155" y="194" text-anchor="middle" font-size="10" class="client-text">Layout</text>

    <rect x="55" y="228" width="80" height="24" rx="8" class="client-node" stroke-width="1.5"/>
    <text x="95" y="244" text-anchor="middle" font-size="10" class="client-text">Header</text>

    <rect x="163" y="228" width="104" height="24" rx="8" class="client-node" stroke-width="1.5"/>
    <text x="215" y="244" text-anchor="middle" font-size="9" class="client-text">ProductPage</text>

    <rect x="33" y="280" width="54" height="22" rx="8" class="client-node" stroke-width="1"/>
    <text x="60" y="295" text-anchor="middle" font-size="9" class="client-text">Logo</text>

    <rect x="95" y="280" width="70" height="22" rx="8" class="client-node" stroke-width="1"/>
    <text x="130" y="295" text-anchor="middle" font-size="9" class="client-text">SearchBar</text>

    <!-- Bundle bar -->
    <rect x="40" y="380" width="230" height="10" rx="5" class="bar-bg"/>
    <rect x="40" y="380" width="230" height="10" rx="5" class="bar-client"/>
    <text x="155" y="410" text-anchor="middle" font-size="10" font-weight="600" class="bar-label">100% Client Bundle</text>
  </g>

  <!-- Arrow 1→2 -->
  <g class="p2">
    <rect x="296" y="208" width="24" height="40" rx="4" class="arrow-body" opacity="0.3"/>
    <polygon points="308,256 298,248 318,248" class="arrow-body"/>
  </g>

  <!-- ============ PHASE 2: Push Boundary Down ============ -->
  <g class="p2">
    <rect x="325" y="60" width="270" height="370" rx="12" class="card" stroke-width="1.5" filter="url(#shadow)"/>
    <text x="460" y="82" text-anchor="middle" font-size="11" font-weight="600" letter-spacing="1" class="phase-label">PHASE 2</text>
    <text x="460" y="100" text-anchor="middle" font-size="13" font-weight="600" class="phase-title">Push Boundary Down</text>
    <text x="460" y="116" text-anchor="middle" font-size="9" class="phase-desc">Move 'use client' to child components</text>

    <g class="tree-line" stroke-width="1.5" fill="none">
      <line x1="460" y1="160" x2="460" y2="178"/>
      <line x1="460" y1="202" x2="460" y2="214"/>
      <line x1="460" y1="214" x2="400" y2="214"/>
      <line x1="460" y1="214" x2="520" y2="214"/>
      <line x1="400" y1="214" x2="400" y2="228"/>
      <line x1="520" y1="214" x2="520" y2="228"/>
      <line x1="400" y1="252" x2="400" y2="266"/>
      <line x1="400" y1="266" x2="365" y2="266"/>
      <line x1="400" y1="266" x2="435" y2="266"/>
      <line x1="365" y1="266" x2="365" y2="280"/>
      <line x1="435" y1="266" x2="435" y2="280"/>
    </g>

    <!-- App (server now) -->
    <rect x="410" y="136" width="100" height="24" rx="8" class="server-node" stroke-width="2"/>
    <text x="460" y="152" text-anchor="middle" font-size="10" font-weight="600" class="server-text">App</text>

    <rect x="410" y="178" width="100" height="24" rx="8" class="server-node" stroke-width="1.5"/>
    <text x="460" y="194" text-anchor="middle" font-size="10" class="server-text">Layout</text>

    <rect x="360" y="228" width="80" height="24" rx="8" class="server-node" stroke-width="1.5"/>
    <text x="400" y="244" text-anchor="middle" font-size="10" class="server-text">Header</text>

    <!-- ProductPage (CLIENT) -->
    <rect x="468" y="228" width="104" height="24" rx="8" class="client-node" stroke-width="2"/>
    <text x="520" y="244" text-anchor="middle" font-size="9" class="client-text">ProductPage</text>
    <rect x="495" y="254" width="50" height="14" rx="7" class="badge-uc" stroke-width="1"/>
    <text x="520" y="265" text-anchor="middle" font-size="7" font-weight="700" class="badge-text">'use client'</text>

    <rect x="338" y="280" width="54" height="22" rx="8" class="server-node" stroke-width="1"/>
    <text x="365" y="295" text-anchor="middle" font-size="9" class="server-text">Logo</text>

    <!-- SearchBar (CLIENT) -->
    <rect x="400" y="280" width="70" height="22" rx="8" class="client-node" stroke-width="2"/>
    <text x="435" y="295" text-anchor="middle" font-size="9" class="client-text">SearchBar</text>
    <rect x="410" y="304" width="50" height="14" rx="7" class="badge-uc" stroke-width="1"/>
    <text x="435" y="315" text-anchor="middle" font-size="7" font-weight="700" class="badge-text">'use client'</text>

    <!-- Bundle bar (~40%) -->
    <rect x="345" y="380" width="230" height="10" rx="5" class="bar-bg"/>
    <rect x="345" y="380" width="92" height="10" rx="5" class="bar-client"/>
    <text x="460" y="410" text-anchor="middle" font-size="10" font-weight="600" class="bar-label">~40% Client Bundle</text>
  </g>

  <!-- Arrow 2→3 -->
  <g class="p3">
    <rect x="601" y="208" width="24" height="40" rx="4" class="arrow-body" opacity="0.3"/>
    <polygon points="613,256 603,248 623,248" class="arrow-body"/>
  </g>

  <!-- ============ PHASE 3: Split Mixed Components ============ -->
  <g class="p3">
    <rect x="630" y="60" width="250" height="370" rx="12" class="card" stroke-width="1.5" filter="url(#shadow)"/>
    <text x="755" y="82" text-anchor="middle" font-size="11" font-weight="600" letter-spacing="1" class="phase-label">PHASE 3</text>
    <text x="755" y="100" text-anchor="middle" font-size="13" font-weight="600" class="phase-title">Split Mixed Components</text>
    <text x="755" y="116" text-anchor="middle" font-size="9" class="phase-desc">Only interactive leaves are client</text>

    <g class="tree-line" stroke-width="1.5" fill="none">
      <line x1="755" y1="160" x2="755" y2="178"/>
      <line x1="755" y1="202" x2="755" y2="214"/>
      <line x1="755" y1="214" x2="695" y2="214"/>
      <line x1="755" y1="214" x2="815" y2="214"/>
      <line x1="695" y1="214" x2="695" y2="228"/>
      <line x1="815" y1="214" x2="815" y2="228"/>
      <line x1="695" y1="252" x2="695" y2="266"/>
      <line x1="695" y1="266" x2="660" y2="266"/>
      <line x1="695" y1="266" x2="730" y2="266"/>
      <line x1="660" y1="266" x2="660" y2="280"/>
      <line x1="730" y1="266" x2="730" y2="280"/>
      <!-- ProductPage children -->
      <line x1="815" y1="252" x2="815" y2="266"/>
      <line x1="815" y1="266" x2="785" y2="266"/>
      <line x1="815" y1="266" x2="845" y2="266"/>
      <line x1="785" y1="266" x2="785" y2="280"/>
      <line x1="845" y1="266" x2="845" y2="280"/>
    </g>

    <rect x="705" y="136" width="100" height="24" rx="8" class="server-node" stroke-width="2"/>
    <text x="755" y="152" text-anchor="middle" font-size="10" font-weight="600" class="server-text">App</text>

    <rect x="705" y="178" width="100" height="24" rx="8" class="server-node" stroke-width="1.5"/>
    <text x="755" y="194" text-anchor="middle" font-size="10" class="server-text">Layout</text>

    <rect x="655" y="228" width="80" height="24" rx="8" class="server-node" stroke-width="1.5"/>
    <text x="695" y="244" text-anchor="middle" font-size="10" class="server-text">Header</text>

    <!-- ProductPage (SERVER now — data fetching) -->
    <rect x="763" y="228" width="104" height="24" rx="8" class="server-node" stroke-width="2"/>
    <text x="815" y="244" text-anchor="middle" font-size="9" class="server-text">ProductPage</text>

    <rect x="633" y="280" width="54" height="22" rx="8" class="server-node" stroke-width="1"/>
    <text x="660" y="295" text-anchor="middle" font-size="9" class="server-text">Logo</text>

    <!-- SearchBar (CLIENT - leaf) -->
    <rect x="695" y="280" width="70" height="22" rx="8" class="client-node" stroke-width="2"/>
    <text x="730" y="295" text-anchor="middle" font-size="9" class="client-text">SearchBar</text>

    <!-- ProductSpecs (SERVER) -->
    <rect x="760" y="280" width="50" height="22" rx="8" class="server-node" stroke-width="1"/>
    <text x="785" y="295" text-anchor="middle" font-size="7" class="server-text">Specs</text>

    <!-- AddToCart (CLIENT - leaf) -->
    <rect x="818" y="280" width="54" height="22" rx="8" class="client-node" stroke-width="2"/>
    <text x="845" y="295" text-anchor="middle" font-size="7" class="client-text">AddCart</text>

    <!-- Bundle bar (~15%) -->
    <rect x="650" y="380" width="210" height="10" rx="5" class="bar-bg"/>
    <rect x="650" y="380" width="32" height="10" rx="5" class="bar-client"/>
    <text x="755" y="410" text-anchor="middle" font-size="10" font-weight="600" class="bar-label">~15% Client Bundle</text>
  </g>

  <!-- Legend (always visible) -->
  <rect x="30" y="450" width="840" height="36" rx="8" class="legend-box" stroke-width="1"/>
  <rect x="60" y="460" width="14" height="14" rx="4" class="server-node" stroke-width="1.5"/>
  <text x="80" y="472" font-size="9" class="legend-text">Server Component</text>
  <rect x="200" y="460" width="14" height="14" rx="4" class="client-node" stroke-width="1.5"/>
  <text x="220" y="472" font-size="9" class="legend-text">Client Component</text>
  <rect x="360" y="460" width="40" height="14" rx="4" class="bar-client"/>
  <text x="408" y="472" font-size="9" class="legend-text">Client bundle size</text>
  <text x="620" y="472" font-size="9" font-weight="600" class="phase-title">Goal: push 'use client' to the smallest leaf components possible</text>
</svg>
