<svg width="780" height="501" viewBox="0 0 780 501" xmlns="http://www.w3.org/2000/svg"><title>visa</title><g fill="none" fill-rule="evenodd"><rect stroke="#393939" stroke-width="30" x="15" y="14" width="750" height="471" rx="40"/><path d="M293.197 348.228l33.36-195.763h53.36l-33.383 195.763h-53.337zM539.308 156.688c-10.572-3.966-27.136-8.222-47.823-8.222-52.725 0-89.865 26.55-90.18 64.603-.298 28.13 26.513 43.82 46.753 53.185 20.77 9.594 27.752 15.714 27.654 24.283-.132 13.12-16.587 19.116-31.923 19.116-21.358 0-32.704-2.966-50.228-10.276l-6.875-3.11-7.49 43.823c12.464 5.465 35.51 10.2 59.438 10.445 56.09 0 92.5-26.248 92.916-66.883.202-22.268-14.014-39.216-44.798-53.188-18.651-9.055-30.074-15.1-29.952-24.268 0-8.137 9.667-16.84 30.556-16.84 17.45-.27 30.088 3.536 39.937 7.5l4.78 2.26 7.235-42.43M676.615 152.465h-41.23c-12.774 0-22.332 3.487-27.942 16.234l-79.245 179.403h56.03s9.163-24.123 11.235-29.418c6.123 0 60.553.084 68.336.084 1.595 6.852 6.49 29.333 6.49 29.333h49.513l-43.188-195.638zm-65.418 126.407c4.413-11.28 21.26-54.723 21.26-54.723-.316.52 4.38-11.335 7.075-18.685l3.606 16.88s10.217 46.727 12.352 56.527h-44.293zM247.903 152.465l-52.24 133.496-5.567-27.128c-9.725-31.274-40.025-65.156-73.898-82.12l47.766 171.204 56.456-.065 84.004-195.385h-56.52" fill="#393939"/><path d="M146.92 152.465H60.88l-.683 4.073c66.94 16.204 111.232 55.363 129.618 102.414l-18.708-89.96c-3.23-12.395-12.6-16.094-24.188-16.526" fill="#393939"/></g></svg>
